<?xml version="1.0" standalone="no"?>
<!DOCTYPE svg PUBLIC "-//W3C//DTD SVG 20010904//EN"
 "http://www.w3.org/TR/2001/REC-SVG-20010904/DTD/svg10.dtd">
<svg version="1.0" xmlns="http://www.w3.org/2000/svg"
 width="648.000000pt" height="562.000000pt" viewBox="0 0 648.000000 562.000000"
 preserveAspectRatio="xMidYMid meet">

<g transform="translate(0.000000,562.000000) scale(0.100000,-0.100000)"
fill="#000000" stroke="none">
<path d="M586 4559 c-90 -12 -198 -50 -258 -91 -187 -127 -184 -396 6 -515 94
-60 221 -91 556 -139 238 -34 350 -86 366 -171 l6 -33 120 0 120 0 -7 53 c-14
109 -75 192 -182 246 -76 38 -215 71 -426 101 -329 47 -402 72 -444 154 -17
33 -20 119 -4 124 6 2 9 7 6 12 -9 15 56 60 113 77 91 27 420 23 557 -7 22 -5
56 -12 75 -15 51 -9 138 -35 188 -56 23 -10 42 -15 42 -11 0 5 -13 48 -30 97
-16 49 -30 96 -30 106 0 18 -84 37 -260 59 -122 15 -433 20 -514 9z"/>
<path d="M2126 4560 c-179 -23 -290 -71 -387 -170 -72 -73 -108 -138 -142
-260 -28 -103 -29 -341 0 -445 l19 -70 122 -3 c67 -1 122 0 122 3 0 3 -10 34
-21 68 -27 79 -37 279 -20 384 15 87 57 177 102 220 76 71 211 112 374 113
163 0 293 -39 364 -111 61 -61 110 -205 111 -322 l0 -48 118 3 117 3 -3 70
c-13 292 -180 493 -457 550 -94 19 -321 27 -419 15z"/>
<path d="M3653 4560 c-111 -12 -171 -29 -253 -68 -178 -87 -291 -274 -302
-498 l-3 -69 100 0 c138 0 135 -1 135 54 0 64 24 171 50 220 73 145 235 210
485 198 158 -8 250 -41 320 -114 57 -59 105 -207 105 -322 l0 -42 83 2 82 2 3
-76 3 -77 -88 0 -88 0 -16 -63 c-9 -34 -19 -70 -23 -79 -8 -17 1 -18 113 -18
l120 0 15 51 c58 194 38 463 -45 618 -69 130 -216 232 -384 266 -94 19 -310
27 -412 15z"/>
<path d="M4667 4523 c16 -25 18 -66 21 -470 l3 -443 114 0 115 0 0 335 c0 200
4 335 9 335 5 0 133 -151 283 -335 l273 -335 242 0 242 0 3 450 c2 342 6 452
16 462 6 6 12 16 12 20 0 4 -67 8 -149 8 l-149 0 16 -32 c15 -29 17 -84 19
-468 l3 -435 -42 45 c-22 25 -105 119 -182 210 -437 509 -519 609 -537 657 -8
23 -10 23 -169 23 l-160 0 17 -27z"/>
<path d="M2749 3708 c-9 -35 -19 -71 -23 -80 -7 -16 -2 -18 55 -17 35 1 91 4
124 8 59 6 59 6 71 46 6 22 14 55 17 73 l7 32 -118 0 -118 0 -15 -62z"/>
<path d="M3106 3743 c3 -16 10 -49 17 -75 l11 -48 124 0 c114 0 124 1 117 18
-5 9 -15 43 -24 75 l-16 57 -117 0 -118 0 6 -27z"/>
<path d="M615 3439 c-205 -20 -342 -94 -402 -217 -23 -47 -28 -70 -28 -132 0
-98 22 -155 83 -212 88 -83 224 -129 497 -168 308 -44 436 -85 470 -150 21
-41 19 -118 -5 -157 -44 -73 -161 -103 -409 -103 -270 0 -498 44 -611 119 -24
17 -45 29 -46 28 -1 -1 6 -45 16 -97 11 -52 19 -110 19 -127 1 -18 3 -33 5
-33 2 0 28 -5 57 -11 56 -11 64 -12 239 -33 160 -20 476 -20 594 -1 186 30
316 107 368 220 19 41 23 67 23 140 -1 78 -5 97 -28 142 -65 125 -232 197
-556 239 -275 35 -411 75 -454 135 -27 37 -33 106 -13 152 12 30 26 43 68 62
172 78 621 43 900 -70 15 -6 13 6 -12 81 -17 48 -30 98 -30 110 0 27 -23 35
-170 58 -163 26 -444 38 -575 25z"/>
<path d="M2148 3440 c-197 -18 -321 -70 -425 -179 -86 -90 -136 -214 -152
-377 -27 -298 58 -527 243 -650 119 -79 280 -109 531 -101 249 8 367 47 481
161 69 69 123 169 151 281 21 86 25 359 5 416 -7 20 -14 45 -16 56 -6 31 -63
148 -78 160 -7 6 -89 43 -182 83 -93 40 -177 76 -185 80 -9 5 -34 16 -56 25
-22 9 -52 23 -67 31 -36 19 -130 24 -250 14z m337 -183 c147 -41 224 -124 261
-284 20 -87 15 -342 -9 -418 -54 -169 -171 -242 -411 -252 -354 -17 -503 106
-523 432 -6 110 8 242 35 309 65 168 219 241 487 231 61 -2 133 -10 160 -18z"/>
<path d="M3665 3439 c-167 -13 -325 -78 -408 -166 l-27 -29 96 -42 96 -41 50
34 c87 61 238 92 393 81 299 -20 402 -138 420 -481 14 -262 15 -257 -100 -371
-68 -68 -126 -95 -242 -114 -41 -7 -136 -40 -241 -83 -211 -88 -209 -89 93
-91 235 -1 310 10 424 64 88 42 178 134 224 230 59 124 71 185 72 360 0 178
-9 228 -65 345 -89 187 -254 283 -524 305 -71 5 -136 9 -145 9 -9 -1 -61 -5
-116 -10z"/>
<path d="M4666 3385 c21 -51 21 -1166 0 -1207 l-15 -28 149 0 149 0 -15 28
c-11 22 -14 110 -14 510 l0 484 48 -59 c26 -32 158 -193 292 -358 134 -165
282 -345 328 -400 45 -55 97 -123 115 -152 l32 -52 129 -1 c118 0 128 1 121
18 -21 47 -26 201 -23 682 2 405 6 530 16 548 l13 22 -144 0 -145 0 14 -40
c12 -33 14 -123 12 -462 l-3 -421 -91 104 c-325 373 -630 740 -652 785 l-16
34 -157 0 -158 0 15 -35z"/>
<path d="M3137 3093 c-9 -16 -35 -119 -42 -165 -11 -82 -6 -264 10 -340 26
-130 115 -278 199 -333 21 -14 30 -12 134 32 l110 46 -51 31 c-92 56 -147 154
-168 305 -12 80 -6 265 9 317 l10 31 -87 36 c-116 49 -118 50 -124 40z"/>
<path d="M117 1894 c-10 -10 20 -94 48 -134 24 -35 51 -56 129 -104 51 -32
286 -88 421 -102 132 -13 318 -55 374 -84 61 -31 84 -63 89 -125 10 -128 -84
-184 -338 -200 -52 -3 -157 -1 -232 5 -217 16 -357 51 -463 115 -31 19 -55 29
-52 22 2 -6 13 -65 23 -130 14 -83 23 -119 34 -122 28 -9 275 -44 350 -49 124
-10 451 -7 514 4 197 33 316 103 373 218 24 49 28 69 28 142 0 146 -52 222
-202 292 -37 18 -72 33 -78 34 -5 1 -40 9 -77 18 -36 8 -161 29 -277 46 -268
39 -332 58 -388 116 l-43 44 -113 0 c-63 0 -116 -3 -120 -6z"/>
<path d="M1520 1861 c-17 -65 -31 -224 -25 -291 28 -317 164 -494 435 -567 96
-26 486 -26 580 1 206 57 341 201 397 421 22 90 24 358 2 421 l-14 41 -105
-44 -105 -43 4 -130 c8 -317 -72 -453 -296 -506 -92 -22 -335 -15 -408 11
-101 37 -164 93 -205 183 -20 45 -25 50 -42 41 -11 -6 -21 -9 -22 -7 -7 9 -56
131 -56 138 0 5 15 13 34 20 l33 11 6 122 c3 67 12 144 20 170 l15 48 -119 -2
-119 -1 -10 -37z"/>
<path d="M4713 1892 l-102 -3 -3 -431 c-2 -334 -6 -432 -15 -436 -7 -2 -13 -8
-13 -13 0 -5 66 -9 149 -9 l150 0 -15 28 c-11 22 -14 101 -14 443 0 389 -1
417 -17 420 -10 2 -64 3 -120 1z"/>
<path d="M4960 1889 c0 -5 67 -89 489 -604 90 -110 176 -219 190 -242 l26 -43
127 0 c71 0 128 3 128 6 0 3 -4 13 -9 23 -17 30 -19 98 -20 487 l-1 382 -99 1
c-54 1 -106 -1 -115 -5 -14 -5 -16 -36 -16 -275 0 -148 -3 -269 -7 -269 -5 1
-100 109 -213 242 -113 133 -216 255 -230 271 -26 29 -27 29 -138 31 -62 0
-112 -2 -112 -5z"/>
<path d="M3046 1882 c-15 -24 -29 -154 -28 -262 2 -333 137 -531 417 -612 73
-21 99 -23 305 -23 253 0 301 9 423 72 126 66 225 205 264 370 22 96 25 331 5
411 l-14 52 -120 0 c-109 0 -119 -2 -114 -17 29 -92 35 -315 12 -424 -35 -163
-118 -246 -283 -285 -92 -22 -335 -15 -408 11 -169 61 -238 177 -252 420 -5
99 2 185 24 273 5 22 4 22 -110 22 -64 0 -118 -3 -121 -8z"/>
</g>
</svg>
