<svg version="1.1" id="Layer_1" xmlns="http://www.w3.org/2000/svg" xmlns:xlink="http://www.w3.org/1999/xlink" x="0px" y="0px"
	 width="100%" viewBox="0 0 539 372" enable-background="new 0 0 539 372" xml:space="preserve">
<path fill="#FEFEFE" opacity="1.000000" stroke="none" 
	d="
M299.065247,372.632874 
	C201.647232,373.000000 104.294350,372.946625 6.941988,373.147888 
	C1.736257,373.158630 -0.034684,372.003693 0.962103,366.952332 
	C1.214956,365.670929 1.000000,364.297211 1.000000,362.482971 
	C4.689593,360.232544 4.635639,356.946747 4.637918,353.524323 
	C4.642650,346.417603 5.272146,345.837524 12.192690,345.601501 
	C14.017242,345.539307 15.844344,345.530792 17.609766,344.987579 
	C21.939985,343.655304 24.603662,340.066772 24.490116,335.736206 
	C24.378548,331.480957 21.948959,328.643616 17.305059,327.439240 
	C14.239312,326.644196 11.112048,326.372253 7.942464,326.380310 
	C5.811777,326.385712 3.608807,326.681091 1.316837,325.245911 
	C1.000000,218.418396 1.022098,111.836754 0.904386,5.255270 
	C0.900431,1.674696 1.610282,0.893064 5.238241,0.899696 
	C78.512871,1.033649 151.787811,1.000000 225.531342,1.000000 
	C226.152573,2.586491 224.891830,2.762693 223.433838,3.225192 
	C215.953140,3.965931 208.999512,5.341469 201.653305,6.767696 
	C196.091232,7.651020 191.172897,9.470011 185.732147,10.769505 
	C178.470505,13.041148 171.605865,15.284360 164.718872,18.523651 
	C157.465225,21.215019 150.785172,24.261316 144.175110,28.263927 
	C143.262192,28.730040 142.642181,29.008492 141.781998,29.545328 
	C141.137222,29.991337 140.764893,30.243721 140.100693,30.677050 
	C135.037292,33.718338 129.946396,36.103912 125.725677,40.400543 
	C119.806061,43.694901 114.926575,47.807644 109.883408,52.269539 
	C104.518135,55.917316 100.662758,60.693089 96.027771,65.123817 
	C94.819710,66.303001 93.814705,67.210182 92.922134,68.682533 
	C92.346642,69.596642 91.909126,70.176636 91.220276,71.043716 
	C64.253700,101.184120 47.846973,135.926407 41.444313,175.454224 
	C38.251099,195.168045 39.193165,214.955582 40.096684,234.751160 
	C40.127018,235.415741 40.470577,236.024353 40.346836,235.740112 
	C39.375881,233.715256 40.037182,230.569122 39.850712,227.545090 
	C37.705315,192.753265 44.013062,159.564774 58.969158,128.039627 
	C68.314011,108.342125 79.797531,90.101151 95.404877,74.191620 
	C101.349747,68.776688 106.482109,63.068867 112.375153,57.635521 
	C116.923454,53.589256 121.270844,49.859081 126.420517,46.590187 
	C132.294327,42.822380 137.856949,39.206707 143.777832,35.519539 
	C144.267136,35.230728 144.461288,35.112503 144.944427,34.812950 
	C145.427795,34.513191 145.622131,34.394768 146.114166,34.109337 
	C150.694595,31.893417 154.926865,29.742153 159.484879,27.498257 
	C160.183350,27.165211 160.583145,26.979731 161.275894,26.643732 
	C161.764389,26.390829 161.960556,26.289839 162.454330,26.037457 
	C162.952927,25.785089 163.153915,25.684114 163.663300,25.433514 
	C164.184128,25.190004 164.396561,25.096121 164.937042,24.873293 
	C171.993378,22.082157 178.811417,19.667061 186.012695,17.197170 
	C191.330200,15.486126 196.448013,14.514854 201.863159,13.086656 
	C208.867264,11.340690 215.678436,10.719418 222.719238,9.071144 
	C225.626663,8.485377 228.164062,8.643598 231.110916,8.545752 
	C231.815247,8.538774 232.096802,8.545078 232.800919,8.536256 
	C234.908234,8.549167 236.592422,8.622735 238.698761,8.552660 
	C244.445084,7.747046 249.780960,7.191763 255.585663,7.813673 
	C256.545258,7.975010 257.086639,8.091258 258.028259,8.292641 
	C258.963837,8.490983 259.503540,8.565440 260.463562,8.578663 
	C267.604736,8.648928 274.205750,9.869802 281.248932,10.856455 
	C286.730316,11.751326 291.683960,13.195042 297.182007,13.924786 
	C302.720459,15.738487 307.882111,17.429115 313.498596,18.938805 
	C318.868835,21.228956 323.993927,23.090914 329.497986,24.992918 
	C347.194244,33.613541 363.933594,43.102962 378.835602,55.529091 
	C399.591980,72.836967 416.968719,92.936127 429.573547,117.400452 
	C433.497437,124.532158 436.616760,131.624863 438.901123,138.343781 
	C436.772064,131.612335 433.541229,124.614861 429.736633,117.477966 
	C407.704437,73.866325 375.074219,41.623875 330.661865,20.977833 
	C325.552338,18.477993 320.723206,16.244667 315.115356,15.007995 
	C309.696777,12.634291 304.464142,10.846043 298.734680,9.313791 
	C292.692261,7.822128 287.055817,6.295084 280.862854,5.380975 
	C275.009369,4.003562 269.114807,4.788393 264.004883,1.428420 
	C354.454987,1.000000 444.910034,1.020890 535.364929,0.921119 
	C538.863953,0.917260 540.117981,1.309287 540.113342,5.360643 
	C539.973877,126.466896 539.984253,247.573349 540.080994,368.679688 
	C540.083740,372.087921 539.629272,373.121277 535.824219,373.113617 
	C460.195496,372.961304 384.566376,373.000000 308.468658,373.000000 
	C307.859528,372.488922 307.891022,371.856171 308.316406,371.654022 
	C314.584015,368.675964 315.006714,363.227783 314.718018,357.268555 
	C314.468323,352.114838 314.698364,346.940155 314.647339,341.774963 
	C314.623413,339.353943 314.298401,337.278564 310.949554,338.386566 
	C308.893433,339.066864 307.070099,337.720703 305.107117,337.479462 
	C299.211731,336.754913 295.306396,339.522614 293.825195,345.565063 
	C292.286682,351.841553 294.833069,358.278168 299.666443,360.037659 
	C302.473877,361.059631 305.144806,360.658417 307.808594,359.150604 
	C311.007629,357.339844 312.139709,358.122650 312.193665,361.800293 
	C312.288818,368.288483 306.441040,372.052277 300.414642,369.439423 
	C298.925171,368.793640 297.938965,367.150330 295.742645,367.257507 
	C295.559967,369.888153 298.553375,370.335114 299.065247,372.632874 
z"/>
<path fill="#0F0F0F" opacity="1.000000" stroke="none" 
	d="
M299.449982,373.000000 
	C297.586700,371.240692 294.858673,370.898224 294.060883,368.514404 
	C293.686676,367.396271 292.176392,365.998322 293.899384,365.096405 
	C295.090546,364.472931 297.237610,364.056915 297.979095,365.518311 
	C300.255829,370.005432 303.995026,370.257111 307.666260,368.575043 
	C311.890442,366.639709 311.320190,362.430542 310.920990,358.518463 
	C305.043549,362.757690 300.684418,363.127960 296.468872,359.810974 
	C292.376648,356.591095 290.882538,349.210022 293.122711,343.281158 
	C295.071259,338.124023 299.321381,335.592407 304.815186,335.953918 
	C307.834137,336.152618 310.498566,339.455627 313.994720,336.573120 
	C315.266693,335.524353 316.043030,337.349945 316.036499,338.871033 
	C316.000763,347.177155 316.237244,355.492615 315.908142,363.786133 
	C315.725586,368.386505 312.814453,371.299225 308.108765,372.654907 
	C305.299988,373.000000 302.599976,373.000000 299.449982,373.000000 
z"/>
<path fill="#0A0A0A" opacity="1.000000" stroke="none" 
	d="
M1.000000,325.468658 
	C5.745247,326.160736 10.593348,325.021881 15.378779,325.688538 
	C22.741995,326.714325 26.169147,330.027954 26.014175,336.330902 
	C25.867382,342.301208 21.725229,346.205383 14.889454,346.816467 
	C6.198425,347.593414 6.144119,347.593872 6.221752,356.786133 
	C6.247852,359.876587 6.764957,363.076660 1.456004,362.007935 
	C1.000000,349.979095 1.000000,337.958221 1.000000,325.468658 
z"/>
<path fill="#80AD41" opacity="1.000000" stroke="none" 
	d="
M256.910828,9.235948 
	C250.993683,9.271365 245.386642,9.399871 239.386932,9.374208 
	C237.100525,6.836395 237.375259,4.301654 238.735489,1.354855 
	C246.020950,1.000000 253.041885,1.000000 260.531433,1.000000 
	C262.689667,3.778001 261.415405,6.399170 260.273499,9.338516 
	C259.491821,9.657804 259.010986,9.681840 258.196533,9.559600 
	C257.648865,9.385227 257.434875,9.357131 256.910828,9.235948 
z"/>
<path fill="#8CBB43" opacity="1.000000" stroke="none" 
	d="
M260.411957,9.737007 
	C259.698334,6.943077 260.402802,4.378973 260.992981,1.399589 
	C261.750000,1.000000 262.500000,1.000000 263.625000,1.000000 
	C269.179504,3.146312 274.886536,2.474134 280.579956,4.120370 
	C282.700684,6.335436 282.785309,8.799980 282.233765,11.688231 
	C274.944214,11.299839 267.897736,10.570043 260.411957,9.737007 
z"/>
<path fill="#74A23E" opacity="1.000000" stroke="none" 
	d="
M238.536804,1.000000 
	C238.999222,3.477726 238.998444,5.955452 238.995972,8.826611 
	C237.271118,9.415745 235.547974,9.611446 233.392761,9.748053 
	C232.797073,9.649670 232.633438,9.610382 232.243683,9.683288 
	C229.351349,10.078558 226.685135,10.361633 223.573593,10.630087 
	C220.924118,8.189981 220.192261,5.618745 222.672775,2.465691 
	C223.912857,2.000304 224.830933,1.830600 225.874496,1.330448 
	C230.024551,1.000000 234.049088,1.000000 238.536804,1.000000 
z"/>
<path fill="#030303" opacity="1.000000" stroke="none" 
	d="
M404.535706,191.773926 
	C408.613373,178.541199 418.886719,174.014771 430.755096,172.246460 
	C441.012390,170.718140 451.329987,171.228195 461.401337,174.093582 
	C472.434113,177.232498 479.398834,185.662964 480.438416,196.545059 
	C480.722931,199.523392 479.862579,200.298019 477.012756,200.226654 
	C470.353027,200.059830 463.683655,200.067154 457.023743,200.230179 
	C454.733917,200.286240 454.080658,199.583908 453.514343,197.350174 
	C451.868591,190.858658 448.005463,188.012131 441.770538,188.004532 
	C435.840027,187.997314 431.306702,191.351135 430.365234,196.442322 
	C429.501953,201.111008 432.065277,205.417236 437.778595,207.364594 
	C445.302521,209.929062 453.046722,211.839233 460.649841,214.181259 
	C470.624420,217.253784 478.973572,222.118393 481.199310,233.509415 
	C483.979126,247.736130 476.973938,260.025085 463.107330,264.204132 
	C449.048645,268.441071 434.800140,268.213593 420.821167,263.873260 
	C409.073059,260.225555 402.000183,250.251511 401.785187,238.555359 
	C401.737671,235.969803 402.058807,234.638458 405.187775,234.749847 
	C412.009644,234.992691 418.849091,234.942719 425.675018,234.767197 
	C428.239319,234.701263 428.863312,235.438766 429.028900,238.012955 
	C429.606720,246.995056 435.330719,251.445374 444.125641,250.157272 
	C449.544189,249.363678 453.284302,245.773422 453.762268,240.906952 
	C454.201904,236.430374 451.233795,231.892242 446.398712,230.190689 
	C442.802673,228.925171 439.039093,228.143875 435.408081,226.967896 
	C430.208344,225.283859 424.924805,223.754166 419.917725,221.599335 
	C405.043243,215.197998 401.382172,208.039917 404.535706,191.773926 
z"/>
<path fill="#090909" opacity="1.000000" stroke="none" 
	d="
M389.916840,247.144287 
	C397.187073,247.144455 397.187073,247.144455 397.187408,254.020264 
	C397.187988,265.536377 397.187988,265.536499 385.506622,265.536438 
	C368.676849,265.536377 351.845276,265.404999 335.018646,265.634308 
	C331.143005,265.687164 330.361298,264.491394 330.381317,260.849182 
	C330.532501,233.355820 330.523987,205.860962 330.388184,178.367432 
	C330.371460,174.982620 331.083832,173.861237 334.698730,173.896835 
	C354.026123,174.087082 373.356842,174.054825 392.685089,173.914810 
	C395.727783,173.892761 396.835938,174.621735 396.597443,177.768723 
	C396.321167,181.413712 396.320099,185.111679 396.595642,188.756729 
	C396.841187,192.004730 395.499420,192.641922 392.562134,192.594971 
	C382.733368,192.437897 372.898254,192.656311 363.070618,192.468216 
	C359.802094,192.405685 358.433563,192.996033 358.445038,196.729843 
	C358.484192,209.463058 358.324677,209.463440 371.024902,209.463577 
	C377.856781,209.463654 384.690704,209.560074 391.519531,209.415710 
	C394.135773,209.360397 395.114777,210.213455 394.885651,212.843445 
	C394.443329,217.920258 396.975372,224.403610 393.827911,227.710983 
	C391.081726,230.596695 384.645020,228.400818 379.842102,228.506012 
	C374.012817,228.633698 368.171021,228.712830 362.349518,228.464447 
	C359.180786,228.329254 358.284607,229.420090 358.486908,232.445953 
	C358.730927,236.095551 358.779877,239.793549 358.475159,243.433914 
	C358.202454,246.691498 359.493408,247.270737 362.434021,247.210953 
	C371.428436,247.028122 380.428894,247.144333 389.916840,247.144287 
z"/>
<path fill="#020202" opacity="1.000000" stroke="none" 
	d="
M247.882950,250.432632 
	C248.987350,241.767685 248.397964,233.610031 248.459061,225.466537 
	C248.577789,209.645554 248.478470,193.823013 248.530624,178.001312 
	C248.536377,176.256943 247.562805,173.863800 251.073914,173.959808 
	C267.540649,174.410095 284.050049,173.050613 300.480896,174.892487 
	C316.536224,176.692276 324.348358,185.788300 324.826782,202.837814 
	C325.246307,217.786316 315.379486,229.737457 300.909149,232.026154 
	C294.611420,233.022263 288.282196,233.053299 281.980164,232.742752 
	C277.991516,232.546204 276.488525,233.378235 276.721710,237.761658 
	C277.136932,245.567261 276.636810,253.418350 276.927277,261.235260 
	C277.063263,264.895111 275.773895,265.759033 272.398285,265.580048 
	C268.258545,265.360535 264.090973,265.664978 259.563721,265.862122 
	C258.997742,266.135681 258.803497,266.289978 258.240692,266.507721 
	C257.367645,266.557556 256.864594,266.523163 255.978394,266.447449 
	C253.504166,266.234680 251.351578,266.542053 249.023483,265.403290 
	C247.674316,263.775421 247.711868,262.141174 247.627884,260.148682 
	C247.639709,258.537262 247.708038,257.308624 247.364014,255.757355 
	C247.053146,254.532410 246.973022,253.632767 247.093872,252.404785 
	C247.279526,251.692551 247.453323,251.316467 247.882950,250.432632 
z"/>
<path fill="#4C7B38" opacity="1.000000" stroke="none" 
	d="
M165.351288,296.623596 
	C158.953918,295.659973 153.719101,292.550171 148.111252,289.553589 
	C147.285660,285.309601 146.430344,281.356537 146.205429,276.972778 
	C147.363281,275.664215 148.465317,274.925049 147.564774,273.062927 
	C145.626404,269.054871 145.057892,264.521790 142.885223,260.185486 
	C141.747406,257.177887 141.705643,254.311203 140.930115,251.195023 
	C140.406921,246.027435 139.395325,241.310669 139.305191,236.102997 
	C139.153854,235.113205 140.789444,234.830093 139.418121,233.740738 
	C137.676987,228.974091 137.326721,224.421890 137.930511,219.396362 
	C138.191666,218.733429 138.470917,218.472229 138.495850,218.191513 
	C138.539047,217.705399 138.355225,218.278427 137.951996,218.403290 
	C136.588989,219.048065 135.550110,219.050751 134.172623,218.446198 
	C132.802902,215.737137 132.853134,213.165085 133.476181,210.229355 
	C134.673416,208.968369 135.918335,208.869263 137.543610,208.905975 
	C138.288788,209.012024 138.685974,209.064987 139.064804,208.874207 
	C139.096130,208.858444 138.896835,208.725800 138.359543,208.347656 
	C137.503845,206.057236 137.710693,204.033432 137.985229,201.621765 
	C138.140930,200.716949 138.234802,200.199097 138.368225,199.282364 
	C138.403519,192.057831 139.921219,185.394363 140.589172,178.251892 
	C140.832672,175.367783 140.435562,173.015671 138.851440,170.578293 
	C138.644119,169.533997 138.816788,168.758316 139.451447,168.533951 
	C145.873215,166.263611 145.328690,159.863129 147.473999,155.073746 
	C148.094009,153.689621 146.961975,153.419861 145.720840,152.920242 
	C145.619705,149.070587 143.531677,145.898590 143.712601,142.014679 
	C149.728775,137.241669 156.407410,134.469910 163.623337,132.024261 
	C166.285690,134.870850 165.261215,138.193573 165.288300,141.764267 
	C162.795258,149.438843 158.403000,155.870865 156.130020,163.602249 
	C159.929871,163.578552 163.654358,161.849350 167.702576,163.462250 
	C169.495743,167.763382 168.363861,170.772568 163.962219,172.750244 
	C162.871643,173.305679 162.098129,173.751495 161.297211,173.780792 
	C154.095398,174.044342 151.486115,178.293091 150.911499,184.925812 
	C150.356415,191.333130 149.372620,197.685562 149.273117,204.154190 
	C149.216568,207.830368 150.686584,208.722168 153.943985,208.636795 
	C157.059326,208.555130 160.228455,208.214447 163.661407,209.393158 
	C165.898148,211.891846 166.807404,214.498459 166.343414,217.850403 
	C162.026337,220.425827 157.559021,220.676804 153.074371,220.176743 
	C150.262390,219.863220 149.308182,220.543457 149.273483,223.547760 
	C149.176895,231.910461 150.483231,240.087036 151.772385,248.293610 
	C152.322388,251.794800 154.181152,253.465027 157.597778,254.004639 
	C160.363678,254.441498 163.215652,254.767532 166.021851,256.545959 
	C167.604813,258.972656 167.461258,261.131744 166.113907,263.607635 
	C163.035400,266.173828 159.852417,264.830811 156.022827,264.737335 
	C158.860580,272.371704 161.258606,279.791473 166.715942,286.234100 
	C167.530304,289.980560 168.024429,293.350739 165.351288,296.623596 
z"/>
<path fill="#659141" opacity="1.000000" stroke="none" 
	d="
M208.963501,298.719849 
	C202.889862,301.276520 196.387329,301.078949 189.454620,301.054565 
	C187.507156,297.355835 184.080231,294.417542 185.215485,289.546082 
	C186.031052,282.325684 185.172470,275.422028 185.917099,268.197144 
	C185.372162,264.372894 185.655090,260.825989 184.805130,257.031311 
	C185.584259,244.058578 186.589249,231.467300 184.125366,218.503357 
	C183.388962,215.636551 183.432236,213.192764 184.061691,210.303894 
	C185.321243,207.396118 185.470367,204.776825 185.471024,202.113327 
	C185.473434,192.205505 185.416275,182.297546 185.509155,171.987671 
	C186.717163,168.107437 185.303574,164.757401 185.077881,160.969788 
	C185.921509,153.601013 185.397766,146.595016 185.404037,139.173477 
	C183.996765,135.459915 182.723633,132.163757 184.714874,128.240265 
	C190.040146,126.473412 195.124008,127.322166 200.602402,127.965691 
	C203.347595,131.511719 201.385849,134.877655 200.685928,138.635712 
	C198.152451,140.714920 197.234329,142.983887 197.387604,145.892014 
	C197.553253,149.034851 197.572311,152.202652 197.389221,155.343109 
	C197.164200,159.202927 198.779251,160.891251 202.623856,160.601776 
	C203.941040,160.502594 205.277008,160.624634 206.989777,160.977982 
	C207.648239,161.200317 207.904755,161.316498 208.499878,161.693268 
	C209.020187,162.176147 209.201859,162.398453 209.561554,163.015320 
	C210.151199,166.068207 209.580276,168.554977 208.110123,171.223083 
	C205.691757,172.592239 203.537445,171.783096 201.407471,171.655380 
	C198.945312,171.507721 197.596085,172.569412 197.545715,175.075394 
	C197.331375,185.740158 197.543472,196.406708 197.427658,207.072021 
	C197.411133,208.593338 198.318420,209.512985 199.868896,210.483521 
	C201.813477,213.338928 200.765823,215.832016 199.724411,218.705582 
	C197.260345,220.900757 196.726135,223.118698 197.047134,226.059387 
	C197.924683,234.098373 197.247742,242.195740 197.447708,250.266083 
	C197.503326,252.510696 196.999252,254.989395 199.745377,256.710449 
	C200.647095,257.209503 201.089401,257.976624 202.272430,257.309601 
	C203.727890,256.923553 204.784546,257.003967 206.118652,257.776001 
	C207.621658,260.384796 207.858261,262.866089 207.396423,265.791840 
	C206.454834,266.863342 205.491196,267.093933 204.515503,267.319489 
	C197.406387,268.963043 197.406677,268.966248 197.401520,276.398865 
	C197.400131,278.389587 197.382584,280.380493 197.405869,282.370972 
	C197.475433,288.317474 197.589569,288.419952 204.006958,288.335327 
	C205.485825,288.822876 205.795883,289.799835 205.618500,290.761505 
	C205.014603,294.035706 206.481201,296.373688 208.963501,298.719849 
z"/>
<path fill="#121212" opacity="1.000000" stroke="none" 
	d="
M119.180519,301.186951 
	C96.750374,282.803467 83.796898,259.190765 79.195992,231.192734 
	C71.005653,181.351898 96.559769,131.927582 141.738724,109.456505 
	C162.648254,99.056526 184.799835,95.357994 208.429016,98.169769 
	C209.277023,98.473083 209.442612,98.852219 209.113861,99.555450 
	C183.610107,97.777130 160.101837,103.143150 138.249649,116.014061 
	C72.856262,154.530685 63.347591,248.553436 119.899689,299.623230 
	C120.233612,300.500458 120.078514,300.950958 119.180519,301.186951 
z"/>
<path fill="#386A32" opacity="1.000000" stroke="none" 
	d="
M133.807678,210.029510 
	C133.666794,212.743927 135.438843,215.072876 134.044739,217.803406 
	C130.484940,220.363556 126.563499,219.149307 122.818085,219.368896 
	C117.833061,219.661179 116.974129,220.423325 117.589943,225.418015 
	C118.141022,229.887726 119.458633,234.198975 120.923622,238.843277 
	C121.255722,239.645782 121.481064,240.083786 121.986496,240.780914 
	C123.613594,242.542938 125.743340,243.276672 126.598267,245.754150 
	C125.317177,250.639343 125.449821,255.246185 125.383446,259.850067 
	C125.348831,262.251007 125.653099,264.938568 122.307297,266.122437 
	C104.160942,242.334274 100.512604,216.190338 108.485146,188.062347 
	C110.937691,179.409485 115.132126,171.603577 120.571884,164.111862 
	C124.659859,163.187653 124.227226,166.214798 124.374565,168.222244 
	C124.711922,172.818542 124.377151,177.455460 125.089378,182.464645 
	C120.802597,189.261398 118.446892,196.371033 116.943146,204.217194 
	C116.930557,205.121384 115.342308,205.326859 116.786880,206.335052 
	C118.731689,208.712509 121.115257,208.454865 123.421883,208.595993 
	C126.838173,208.804993 130.385574,207.847412 133.807678,210.029510 
z"/>
<path fill="#2D6137" opacity="1.000000" stroke="none" 
	d="
M95.628418,104.657684 
	C80.878494,126.026459 70.845284,149.273773 65.577011,174.487213 
	C57.711365,212.131424 60.970509,248.866089 75.531982,284.529938 
	C76.818352,287.680481 78.101341,290.832397 79.473969,294.199738 
	C75.628433,292.655334 68.767403,278.400116 63.537888,258.991974 
	C48.119766,201.771072 56.943256,148.491028 90.746704,99.283234 
	C92.551071,100.818260 93.417114,103.079041 95.628418,104.657684 
z"/>
<path fill="#141414" opacity="1.000000" stroke="none" 
	d="
M333.421051,152.980438 
	C333.420776,143.331131 333.522614,134.176651 333.361450,125.026825 
	C333.309326,122.067085 334.026123,120.939331 337.228088,121.039543 
	C344.875580,121.278870 352.540039,121.267944 360.188416,121.043259 
	C363.366364,120.949905 363.573456,122.418488 363.648590,124.932693 
	C363.728790,127.617409 362.791626,128.379791 360.210205,128.268387 
	C355.891541,128.082016 351.553894,128.343872 347.234161,128.170410 
	C344.717682,128.069336 343.529755,128.738083 343.846466,131.451523 
	C344.038086,133.093338 344.016235,134.789093 343.850830,136.436569 
	C343.617889,138.756836 344.711517,139.212601 346.758057,139.152451 
	C350.914795,139.030258 355.090454,139.316452 359.233765,139.050980 
	C362.477570,138.843124 362.639008,140.524414 362.636353,142.989410 
	C362.633850,145.330566 362.319733,146.780029 359.422241,146.629852 
	C355.439056,146.423386 351.427185,146.750488 347.446594,146.520416 
	C344.621063,146.357101 343.825104,147.258774 343.809052,150.101318 
	C343.760101,158.783630 343.626404,158.782730 352.265198,158.783051 
	C354.927795,158.783142 357.602203,158.941132 360.249664,158.741409 
	C362.957947,158.537094 363.958160,159.295563 363.997498,162.245529 
	C364.040924,165.500427 362.458313,165.639191 360.014252,165.611465 
	C352.526672,165.526581 345.032288,165.418564 337.551392,165.658356 
	C334.241852,165.764450 333.043121,164.774811 333.367035,161.459854 
	C333.624725,158.822357 333.420288,156.139709 333.421051,152.980438 
z"/>
<path fill="#2E6238" opacity="1.000000" stroke="none" 
	d="
M96.724617,73.589134 
	C82.088791,89.893387 69.943085,107.565277 60.626148,127.152985 
	C43.945393,162.222244 37.700291,199.085526 41.620201,237.701157 
	C41.758293,239.061493 42.578709,240.596710 41.051884,241.815247 
	C30.899355,193.835449 42.060913,123.464554 90.570663,69.792328 
	C93.093872,70.367073 95.929138,70.163231 96.724617,73.589134 
z"/>
<path fill="#111111" opacity="1.000000" stroke="none" 
	d="
M312.880737,128.208801 
	C305.341278,128.082657 309.467468,133.393219 308.673248,136.157120 
	C307.675018,139.631012 310.546295,139.126068 312.643951,139.124237 
	C316.137482,139.121170 319.635895,139.235107 323.122986,139.085022 
	C325.757263,138.971634 327.376068,139.101196 327.346436,142.636429 
	C327.317535,146.084290 326.131989,146.878265 323.023041,146.623901 
	C320.048462,146.380524 316.991241,146.906799 314.054596,146.494537 
	C309.199554,145.812927 308.268066,147.972733 308.478119,152.290054 
	C308.794037,158.782425 308.548035,158.793747 315.272919,158.791046 
	C318.600098,158.789719 321.928314,158.841949 325.254089,158.773056 
	C327.373993,158.729141 329.120361,158.590164 328.966217,161.736099 
	C328.842590,164.259369 328.662476,165.705200 325.519196,165.627060 
	C317.539001,165.428619 309.547363,165.443390 301.566681,165.636368 
	C298.523132,165.709946 298.049438,164.448746 298.074188,161.801483 
	C298.189056,149.491974 298.186279,137.180252 298.075592,124.870667 
	C298.051880,122.232025 298.519470,120.977547 301.571625,121.056679 
	C309.385254,121.259270 317.213776,121.305237 325.023682,121.040573 
	C328.444336,120.924660 328.107239,122.748962 328.273132,125.017555 
	C328.473907,127.763191 327.409760,128.402374 324.869751,128.266617 
	C321.054291,128.062714 317.220062,128.210663 312.880737,128.208801 
z"/>
<path fill="#0E0E0E" opacity="1.000000" stroke="none" 
	d="
M262.975586,130.051605 
	C262.977112,121.134247 262.977112,121.133881 271.634216,121.132072 
	C277.459137,121.130844 283.289398,121.278923 289.106689,121.067673 
	C292.006927,120.962357 293.082031,121.538017 293.171143,124.795517 
	C293.272247,128.492630 291.367889,128.271698 288.920959,128.223160 
	C284.928314,128.143967 280.925720,128.348022 276.941193,128.151855 
	C274.299835,128.021820 273.584320,128.995651 273.496094,131.547699 
	C273.233978,139.130249 273.121246,139.126953 280.537445,139.130997 
	C283.200287,139.132446 285.880493,139.320282 288.521271,139.078766 
	C291.445068,138.811386 292.207825,139.948105 292.102753,142.730377 
	C292.010193,145.182434 291.946655,146.844452 288.727509,146.618362 
	C284.918396,146.350861 281.069427,146.692841 277.250763,146.505524 
	C274.536682,146.372391 273.521210,147.118149 273.476685,150.063553 
	C273.344513,158.801086 273.199738,158.798416 282.024200,158.796890 
	C284.687042,158.796432 287.355713,158.909012 290.010925,158.767502 
	C292.342224,158.643280 293.703613,158.948837 293.651733,161.888260 
	C293.603271,164.635880 292.944000,165.692566 290.002472,165.621262 
	C282.184998,165.431732 274.357208,165.439819 266.539246,165.618530 
	C263.709564,165.683228 262.866241,164.854568 262.911041,161.997940 
	C263.075500,151.515610 262.975769,141.029144 262.975586,130.051605 
z"/>
<path fill="#141414" opacity="1.000000" stroke="none" 
	d="
M95.570663,200.766174 
	C94.225067,215.072647 94.474525,229.096619 98.363136,242.932739 
	C115.549667,304.084442 186.920761,332.043213 241.000931,298.776428 
	C242.415054,297.906555 243.803833,296.995514 245.540558,296.020752 
	C246.378021,295.711426 246.789948,295.821075 247.056290,296.633362 
	C193.152802,338.323090 112.260826,312.172333 95.047363,242.894867 
	C91.668808,229.297485 91.566147,215.559082 94.208389,201.394379 
	C94.596741,200.685379 94.930939,200.565094 95.570663,200.766174 
z"/>
<path fill="#7AA740" opacity="1.000000" stroke="none" 
	d="
M248.222137,250.970306 
	C248.179489,252.215561 248.237427,253.121719 248.210098,254.359924 
	C248.816254,256.031189 248.110779,257.253143 247.602478,258.835938 
	C244.258789,261.707397 238.979294,260.513885 236.676849,265.255310 
	C233.101685,264.457336 232.760361,262.098694 234.123489,259.658539 
	C235.640320,256.943329 235.880371,254.396194 234.710709,251.608368 
	C234.165588,250.309113 234.277496,248.984970 234.807510,247.734940 
	C235.790344,245.417023 235.041519,243.565735 233.251236,241.547241 
	C231.901123,236.383820 233.800339,231.693848 233.662842,226.887497 
	C233.547623,222.858948 232.996826,220.016785 228.111603,220.206741 
	C226.620728,220.264709 225.207260,219.601288 223.726807,218.290619 
	C222.432220,215.955200 222.454010,213.895462 223.329742,211.415253 
	C225.616028,209.177460 228.193954,209.443100 230.604752,209.635132 
	C233.149780,209.837845 233.751144,209.306976 233.737793,206.527161 
	C233.687607,196.076111 232.030441,185.850830 230.226135,175.220657 
	C229.943390,169.230652 230.090973,163.671906 230.877151,158.117233 
	C231.131180,156.322464 230.778473,154.438065 232.756195,152.943939 
	C238.619537,166.088760 241.019455,180.120682 242.525711,194.283218 
	C244.519333,213.028076 243.824295,231.726776 240.078857,250.663055 
	C240.292999,251.238144 240.456802,251.499161 240.723785,251.834534 
	C243.055313,251.198639 245.151352,250.571121 247.665726,249.921234 
	C248.084076,249.898865 248.189484,249.844238 248.232849,249.884766 
	C248.291718,250.160614 248.307220,250.395905 248.222137,250.970306 
z"/>
<path fill="#C5DA37" opacity="1.000000" stroke="none" 
	d="
M429.475861,117.977882 
	C418.031128,98.462746 404.772064,80.694351 388.320892,65.332024 
	C371.132660,49.281471 351.706421,36.696819 330.108765,26.744495 
	C328.803192,24.403416 328.054382,22.236578 330.465637,20.076056 
	C372.962372,38.942219 404.475891,69.128143 426.720428,109.251854 
	C427.928345,111.430634 428.946106,113.714821 430.118713,116.295364 
	C430.534393,117.187889 430.433533,117.632538 429.475861,117.977882 
z"/>
<path fill="#121212" opacity="1.000000" stroke="none" 
	d="
M488.511841,336.425415 
	C491.335358,336.079285 492.401184,337.134094 493.168793,339.457733 
	C494.920959,344.761688 497.085876,349.929321 499.427917,356.054108 
	C501.648193,349.994568 503.600006,344.910522 505.357819,339.760223 
	C506.147827,337.445435 507.345917,335.465179 509.881165,336.601379 
	C512.149170,337.617767 509.998444,339.533630 509.568329,340.757111 
	C506.274353,350.127197 502.676117,359.389923 499.332092,368.743103 
	C498.563843,370.891754 497.610962,372.674011 495.209595,371.765594 
	C492.468658,370.728729 494.422882,368.602448 495.076843,367.396179 
	C497.033661,363.786957 496.292511,360.475006 494.853210,357.010895 
	C492.880310,352.262390 490.868011,347.515503 489.236969,342.645905 
	C488.410095,340.177124 487.010834,339.708252 484.776001,339.863647 
	C481.803558,340.070312 483.181000,342.290588 483.097351,343.602448 
	C482.896423,346.753448 483.049469,349.926025 483.027924,353.089691 
	C483.007111,356.147980 483.302460,358.958527 487.421082,358.763428 
	C488.824127,358.696930 489.062134,359.449646 489.034302,360.593689 
	C489.011749,361.520691 488.682739,362.041992 487.754089,362.424164 
	C484.017975,363.961609 479.053802,361.626709 478.573792,357.530365 
	C478.034363,352.926788 478.211884,348.236572 478.131927,343.583099 
	C478.097839,341.598297 478.565918,339.376709 475.290436,339.846161 
	C474.255493,339.994446 473.849701,339.232361 473.832947,338.296082 
	C473.812378,337.145935 474.244904,336.384918 475.556885,336.439209 
	C476.987976,336.498444 478.352478,336.390900 478.110626,334.405640 
	C477.682770,330.893524 479.980896,330.306854 482.855865,329.966339 
	C483.040863,333.409424 482.148743,337.834473 488.511841,336.425415 
z"/>
<path fill="#101010" opacity="1.000000" stroke="none" 
	d="
M76.997818,342.942749 
	C78.269730,347.043365 79.456398,350.755280 80.643074,354.467163 
	C80.964272,354.459991 81.285461,354.452820 81.606659,354.445648 
	C83.181946,349.504547 84.777191,344.569641 86.322823,339.619293 
	C86.954140,337.597321 87.750854,335.632904 90.352386,336.534027 
	C93.121040,337.493073 90.935966,339.423767 90.603935,340.604095 
	C88.855988,346.818054 86.792847,352.943085 84.856544,359.104462 
	C84.286285,360.919067 83.658745,362.135315 81.196556,362.158600 
	C78.572517,362.183380 77.785736,360.943146 77.168556,358.908447 
	C75.548782,353.568359 73.875191,348.244629 71.804390,341.563690 
	C69.620636,348.380096 67.709869,353.748047 66.235649,359.233276 
	C65.627625,361.495575 64.665001,362.103882 62.488880,362.092346 
	C60.389618,362.081207 59.303745,361.648987 58.660378,359.356079 
	C56.827747,352.824646 54.594879,346.406311 52.591488,339.921234 
	C52.220245,338.719513 50.643993,336.937683 53.349068,336.509399 
	C54.923843,336.260071 56.481304,336.173767 57.148178,338.546722 
	C58.695953,344.054138 60.628014,349.453491 62.729759,355.893982 
	C64.560104,350.152130 66.210426,345.341766 67.600647,340.457397 
	C68.284561,338.054504 68.812225,336.300720 72.034035,336.318390 
	C75.423790,336.336975 75.668037,338.411285 76.152802,340.720276 
	C76.286400,341.356628 76.652931,341.944092 76.997818,342.942749 
z"/>
<path fill="#74A23E" opacity="1.000000" stroke="none" 
	d="
M233.659637,242.205200 
	C235.418594,242.082047 237.202789,242.929367 236.745575,244.128906 
	C234.875412,249.035583 237.984955,254.010040 236.462082,258.554260 
	C235.687714,260.864929 233.491882,262.475586 236.315613,265.029358 
	C237.703690,268.772614 235.864670,271.936371 235.032715,275.592896 
	C234.612335,276.293915 234.210526,276.579987 233.983261,276.956482 
	C233.643158,277.519897 233.919617,276.709778 234.228867,277.300201 
	C234.304047,277.443787 234.280624,277.285706 234.315247,276.640259 
	C235.782639,275.075470 237.070267,273.968994 239.308105,275.012512 
	C240.485214,277.802124 240.766922,280.582947 242.786179,283.046631 
	C237.775772,287.845764 232.010239,291.321075 225.362686,293.981903 
	C221.735184,290.394684 222.705612,285.904694 222.362274,281.334778 
	C221.806503,276.502045 224.271637,272.788147 225.570343,268.753387 
	C226.080353,267.168945 227.630829,265.364899 224.710419,263.916321 
	C223.874725,260.948700 224.503235,258.249176 224.561569,255.212952 
	C231.247589,253.251053 231.066193,246.976746 233.659637,242.205200 
z"/>
<path fill="#719E3E" opacity="1.000000" stroke="none" 
	d="
M233.095474,152.424896 
	C233.059219,159.213577 229.142303,165.536865 232.700607,172.055313 
	C233.177490,172.928986 232.513962,173.590027 231.266785,173.969925 
	C223.141434,175.493881 215.794052,173.404358 208.221115,170.989349 
	C207.611053,168.212234 208.668793,166.034042 209.007294,163.359375 
	C214.209152,160.049194 219.260086,162.889923 224.736420,163.481384 
	C225.975723,163.975540 226.715836,164.538361 227.450882,165.111481 
	C227.976562,165.521378 227.250580,165.045685 227.809723,165.408463 
	C228.040268,165.558060 227.970032,165.473862 227.434448,164.820496 
	C224.395798,156.957626 221.785751,149.257690 216.396759,142.516144 
	C216.219833,138.808868 215.218155,135.210632 218.724243,132.337173 
	C223.976791,132.535934 227.070114,135.167191 228.606537,139.955399 
	C229.918549,144.044266 231.572617,148.023392 233.095474,152.424896 
z"/>
<path fill="#101010" opacity="1.000000" stroke="none" 
	d="
M376.401276,356.063690 
	C378.602539,351.105682 376.551727,348.549194 372.241882,346.999359 
	C368.669830,345.714813 364.942383,344.622711 361.688202,342.744598 
	C355.169891,338.982697 355.324188,330.894684 361.721039,326.868530 
	C368.046814,322.887085 378.413574,324.668945 381.378906,330.321838 
	C382.011475,331.527618 383.395630,333.369751 381.657471,334.179932 
	C380.262268,334.830261 377.947174,335.782074 376.714355,332.893036 
	C374.943756,328.743805 371.148468,328.526398 367.367828,329.146484 
	C364.914703,329.548859 363.175232,331.077881 362.705566,333.714691 
	C362.233765,336.363342 363.239288,338.411774 365.606415,339.460266 
	C368.933929,340.934113 372.407990,342.074615 375.804962,343.394775 
	C381.287628,345.525574 383.552643,348.582031 382.987488,353.391113 
	C382.386505,358.504822 379.350952,361.250793 374.339172,362.328644 
	C370.450989,363.164886 366.704224,362.901245 362.991241,361.846252 
	C359.525604,360.861542 357.300385,358.527161 356.569153,354.913361 
	C356.327576,353.719360 355.261047,352.068115 357.536133,351.912323 
	C358.989136,351.812805 360.690216,351.012451 361.855652,353.136444 
	C365.637909,360.029480 369.558044,360.846313 376.401276,356.063690 
z"/>
<path fill="#181818" opacity="1.000000" stroke="none" 
	d="
M207.026917,358.101410 
	C210.843628,358.103241 214.168198,358.114197 217.492676,358.101562 
	C218.837143,358.096466 220.147263,357.898102 220.251007,359.945282 
	C220.348846,361.875977 219.365524,362.076141 217.826874,362.063995 
	C211.676880,362.015320 205.524887,361.969635 199.376678,362.084808 
	C197.317535,362.123383 196.912857,361.287384 196.924301,359.451111 
	C196.989609,348.979248 197.014786,338.506195 196.913177,328.034912 
	C196.890091,325.654572 197.989883,325.341492 199.950089,325.370911 
	C205.600555,325.455688 211.253036,325.402496 216.904739,325.408478 
	C218.424088,325.410095 219.978226,325.270325 219.911713,327.591675 
	C219.843262,329.981171 218.130875,329.552765 216.715286,329.583618 
	C214.389236,329.634338 212.061249,329.596680 209.734085,329.596924 
	C202.884644,329.597656 200.655273,332.842499 202.581757,339.620758 
	C203.157043,341.644806 204.527985,341.047363 205.690765,341.074768 
	C209.179596,341.157043 212.671631,341.095520 216.162308,341.111603 
	C217.489410,341.117737 218.817490,340.965363 218.918945,343.015839 
	C219.035812,345.377594 217.563690,345.239594 216.015717,345.232941 
	C212.691254,345.218719 209.359192,345.365204 206.044601,345.183655 
	C203.516998,345.045197 202.348007,345.804108 202.569916,348.484467 
	C202.733932,350.465485 202.821686,352.502167 202.548737,354.459015 
	C202.080276,357.817627 203.715607,358.521240 207.026917,358.101410 
z"/>
<path fill="#111111" opacity="1.000000" stroke="none" 
	d="
M257.568054,136.007309 
	C257.568390,144.984802 257.346741,153.471924 257.665100,161.938721 
	C257.818420,166.015976 255.514603,165.537384 252.968750,165.599411 
	C250.447906,165.660843 248.633026,165.745560 248.701599,162.106262 
	C248.936462,149.641953 248.923264,137.168030 248.699173,124.703247 
	C248.637863,121.293549 250.032074,120.855766 252.790253,121.087387 
	C255.162033,121.286560 257.960632,120.320465 257.624054,124.540894 
	C257.334198,128.175156 257.566559,131.851074 257.568054,136.007309 
z"/>
<path fill="#407035" opacity="1.000000" stroke="none" 
	d="
M124.448761,184.444702 
	C122.649063,179.276337 123.110321,174.135925 122.960602,169.031891 
	C122.911392,167.354492 123.826988,165.302261 121.267456,164.038971 
	C124.664940,157.262970 130.198181,152.156113 136.345963,147.167343 
	C139.175323,149.618927 138.598145,153.438156 140.513962,156.649658 
	C140.908035,159.500381 139.159836,160.912201 137.708298,162.460953 
	C135.583862,164.727676 133.171036,166.759018 131.675964,170.055496 
	C133.978455,170.241867 135.900452,168.441589 138.269897,169.558182 
	C141.471817,170.987442 142.338776,173.300690 141.983276,176.666351 
	C136.752731,180.737366 131.083481,183.379395 124.448761,184.444702 
z"/>
<path fill="#181818" opacity="1.000000" stroke="none" 
	d="
M175.121994,351.808899 
	C173.404465,354.362946 174.878250,355.783539 176.230118,357.288025 
	C177.438995,358.633392 178.556122,360.061157 179.825302,361.586670 
	C178.149307,362.184082 176.453064,362.641235 175.657074,361.164429 
	C173.192673,356.592285 171.129913,358.799652 168.205322,360.860748 
	C162.800888,364.669403 154.749542,363.009979 151.255005,357.916931 
	C147.759750,352.822845 149.085419,346.217743 154.935501,342.353119 
	C157.378845,340.739014 157.280914,339.783447 156.020584,337.526642 
	C152.967392,332.059601 154.325272,327.262848 159.173416,325.543884 
	C162.588074,324.333160 165.805023,324.682495 168.172119,327.734680 
	C170.488647,330.721619 170.305573,333.836487 168.304062,336.983093 
	C167.011703,339.014832 164.916107,340.061584 163.016479,341.572510 
	C164.518890,343.409180 165.963608,345.228149 167.467087,346.997192 
	C168.746201,348.502258 170.093018,349.949799 171.524902,351.551422 
	C171.958389,351.065796 172.255219,350.747528 172.536285,350.415894 
	C173.768295,348.962128 171.728714,344.874573 175.154816,345.765533 
	C177.377625,346.343597 175.763275,349.457642 175.121994,351.808899 
z"/>
<path fill="#417136" opacity="1.000000" stroke="none" 
	d="
M121.971756,266.382507 
	C124.670601,264.801544 123.810471,262.273346 124.012741,260.088989 
	C124.452850,255.336227 122.637970,250.282532 125.934372,245.521774 
	C131.933182,244.998596 136.737320,248.040527 141.856186,251.079437 
	C143.721863,253.925125 142.570740,257.063141 143.873260,260.063110 
	C139.106232,261.951752 135.391434,258.518616 130.638809,257.875061 
	C133.048676,261.008514 135.773483,263.740814 137.416992,267.586426 
	C138.042999,272.460144 140.488358,276.974304 137.382660,281.691559 
	C131.094482,277.740845 126.474693,272.326813 121.971756,266.382507 
z"/>
<path fill="#141414" opacity="1.000000" stroke="none" 
	d="
M227.081726,362.034576 
	C224.521957,362.217499 224.786911,360.705780 224.785995,359.397583 
	C224.781357,352.737274 224.769791,346.076904 224.794342,339.416718 
	C224.798370,338.322479 224.366470,336.825073 225.953842,336.541290 
	C227.147949,336.327759 228.879288,335.795746 229.400238,337.521210 
	C230.001617,339.513184 230.566635,338.813141 231.621765,337.922729 
	C235.071198,335.012054 238.988388,335.007202 242.800079,336.868835 
	C246.540512,338.695648 246.578796,342.399902 246.579819,345.961365 
	C246.581085,350.457092 246.516953,354.954102 246.610641,359.447876 
	C246.650070,361.339447 246.060287,362.054596 244.072021,362.098328 
	C241.843765,362.147369 241.735565,361.004364 241.760010,359.323975 
	C241.822968,354.995667 241.787750,350.665833 241.777359,346.336639 
	C241.768539,342.664978 240.754166,339.384460 236.475998,339.337463 
	C232.377686,339.292450 230.169907,341.981110 229.951645,346.040253 
	C229.728485,350.190369 229.741501,354.352722 229.559204,358.505676 
	C229.495056,359.967194 230.369400,362.125641 227.081726,362.034576 
z"/>
<path fill="#121212" opacity="1.000000" stroke="none" 
	d="
M271.155457,338.767090 
	C271.884735,339.731689 272.467438,340.359558 272.807312,341.099060 
	C276.004608,348.055695 274.797577,350.030609 267.399109,350.031921 
	C264.740082,350.032379 262.062653,350.228271 259.426880,349.980743 
	C256.408478,349.697327 255.587753,350.727356 256.454346,353.567932 
	C257.328156,356.432129 258.617920,358.838409 261.889557,359.327209 
	C264.985840,359.789856 267.605042,358.984161 268.653107,355.725311 
	C269.658234,352.599945 271.878479,354.586029 273.671814,353.821350 
	C272.390717,359.989685 269.729401,362.326508 263.857910,362.854858 
	C258.522980,363.334869 254.085510,360.753906 252.269348,356.114532 
	C249.846512,349.925476 251.190353,341.860321 255.212616,338.450287 
	C259.249878,335.027588 265.669800,335.040619 271.155457,338.767090 
z"/>
<path fill="#121212" opacity="1.000000" stroke="none" 
	d="
M468.681519,350.031342 
	C463.918060,350.031372 459.613129,350.031372 455.201660,350.031372 
	C455.162384,353.181976 455.584595,355.930511 457.853058,357.959045 
	C460.730865,360.532501 465.076782,359.804504 467.267120,356.501556 
	C468.962219,353.945374 468.962250,353.945404 472.663483,354.383942 
	C471.244080,360.091614 468.116913,362.643951 462.255768,362.878448 
	C456.589386,363.105164 452.500488,360.324799 450.979065,355.078552 
	C449.848358,351.179565 449.641754,347.247437 451.018066,343.336823 
	C453.009613,337.677948 457.742218,335.124512 464.612701,336.009796 
	C469.306061,336.614563 472.273499,340.206848 473.124634,345.625153 
	C473.666779,349.076538 472.799927,350.664948 468.681519,350.031342 
z"/>
<path fill="#101010" opacity="1.000000" stroke="none" 
	d="
M98.531021,350.202515 
	C97.649948,353.346283 98.400467,356.020905 100.640594,358.038940 
	C103.449745,360.569580 108.256775,359.888702 109.919373,356.334961 
	C111.084541,353.844452 112.962227,353.201782 114.520645,354.238007 
	C116.456398,355.525146 114.710175,357.510010 113.731400,358.861969 
	C110.419182,363.437042 101.497704,364.257355 97.005905,360.516968 
	C93.182213,357.332947 91.603622,349.111908 93.708374,343.343842 
	C95.634911,338.064178 99.474510,335.732666 105.846169,335.973480 
	C112.162590,336.212158 116.763954,341.868042 116.093742,348.181763 
	C115.869667,350.292664 114.703011,350.018555 113.417328,350.023254 
	C108.595871,350.040863 103.774361,350.042511 98.531021,350.202515 
z"/>
<path fill="#0D0D0D" opacity="1.000000" stroke="none" 
	d="
M386.355438,354.076019 
	C386.109406,351.214020 385.750885,348.693024 386.033905,346.246246 
	C386.696747,340.516083 390.898956,336.525726 396.502563,335.900757 
	C403.016571,335.174255 407.957275,337.924957 410.159088,343.503937 
	C412.952576,350.582123 410.177643,358.898468 404.123627,361.591797 
	C397.023071,364.750732 389.961823,361.883942 386.355438,354.076019 
z"/>
<path fill="#0D0D0D" opacity="1.000000" stroke="none" 
	d="
M41.274284,336.175446 
	C49.328480,339.745392 52.414051,347.111633 49.438854,354.808563 
	C46.908607,361.354401 40.021244,364.361542 32.965420,362.001160 
	C27.294722,360.104156 24.265314,354.388397 25.002296,346.976624 
	C25.610672,340.858246 29.931458,336.430511 35.900570,335.953766 
	C37.544346,335.822479 39.214851,336.025970 41.274284,336.175446 
z"/>
<path fill="#121212" opacity="1.000000" stroke="none" 
	d="
M335.748932,342.648468 
	C336.233856,341.358002 336.730530,340.461304 336.913269,339.504639 
	C337.366608,337.131683 338.751923,335.622101 341.032104,336.592285 
	C343.509460,337.646301 341.321167,339.488220 340.881348,340.740570 
	C337.596741,350.092957 334.151062,359.389191 330.695984,368.680756 
	C330.158813,370.125305 330.021667,372.071136 327.619385,371.895782 
	C326.053589,371.781494 324.110138,371.904877 325.552612,369.565826 
	C329.206543,363.640869 326.878754,358.290802 324.462341,352.784241 
	C322.605835,348.553650 321.052063,344.185822 319.490021,339.833679 
	C319.122253,338.808929 317.524200,337.205658 319.594788,336.605621 
	C321.091278,336.171967 323.153046,335.660217 324.056824,338.287781 
	C325.986694,343.898407 328.188690,349.415405 330.445496,355.412781 
	C333.155365,351.410217 333.778198,346.945343 335.748932,342.648468 
z"/>
<path fill="#111111" opacity="1.000000" stroke="none" 
	d="
M414.259827,345.683929 
	C416.858887,337.560516 421.151794,334.798798 428.885742,335.914368 
	C432.497742,336.435425 435.007294,338.368622 436.167511,341.837311 
	C436.478516,342.766998 437.782532,344.215729 436.133362,344.752075 
	C434.860229,345.166138 432.765411,346.144989 432.002472,343.738159 
	C431.005035,340.591766 428.846222,338.951813 425.675415,339.415710 
	C421.934082,339.963043 420.153137,342.755524 419.354248,346.241180 
	C418.701752,349.088074 419.144806,351.858398 420.060822,354.567719 
	C420.942474,357.175323 422.782867,358.645691 425.535034,358.955200 
	C428.353760,359.272186 430.706421,358.193634 431.540558,355.588348 
	C432.397064,352.913391 434.210693,352.425476 435.999268,353.414673 
	C438.041046,354.543976 436.229767,356.453430 435.622864,357.717010 
	C433.640778,361.843384 429.788269,362.962402 425.628662,362.819855 
	C421.054932,362.663086 417.213989,360.910248 415.299469,356.359467 
	C413.912964,353.063812 413.687897,349.610321 414.259827,345.683929 
z"/>
<path fill="#336635" opacity="1.000000" stroke="none" 
	d="
M96.064987,104.741638 
	C92.805527,104.562317 91.245338,102.819695 91.023514,99.471680 
	C97.178223,89.324860 105.057945,81.007271 113.550171,72.800781 
	C117.145439,74.448051 117.047791,77.230652 116.027695,80.630150 
	C109.227173,88.667175 102.244446,96.151604 96.064987,104.741638 
z"/>
<path fill="#59873C" opacity="1.000000" stroke="none" 
	d="
M185.752106,289.914429 
	C187.233902,292.262634 185.081024,295.828247 189.250504,296.652771 
	C190.386658,296.877502 188.711319,298.952515 189.004288,300.595154 
	C187.924774,300.966431 186.854065,300.970490 185.386230,300.908875 
	C184.830292,300.752838 184.671509,300.662537 184.262375,300.683594 
	C177.733963,300.424988 171.600327,299.303223 165.318817,297.065979 
	C166.311142,293.687805 165.978683,290.342804 165.992538,286.600952 
	C166.584167,285.475098 167.420151,285.183350 168.216919,285.422363 
	C173.905380,287.128571 179.971863,287.249481 185.752106,289.914429 
z"/>
<path fill="#558338" opacity="1.000000" stroke="none" 
	d="
M184.530777,127.831886 
	C185.286728,131.152649 184.104813,134.695755 186.773376,137.958771 
	C186.234055,138.846909 185.650497,139.670517 184.868317,139.698380 
	C177.952133,139.944702 171.570251,142.951645 164.376572,143.308105 
	C164.017563,139.704697 164.008789,136.322830 163.998917,132.482727 
	C170.331131,128.869598 177.360794,129.019165 184.530777,127.831886 
z"/>
<path fill="#4C7B38" opacity="1.000000" stroke="none" 
	d="
M132.870087,57.166183 
	C140.404541,50.398380 149.137192,45.563683 158.344330,40.882675 
	C162.139557,42.636208 162.378586,43.572483 160.243835,48.285042 
	C152.318375,53.001282 144.802658,57.618042 137.341125,62.926773 
	C135.417938,61.358101 135.194183,58.725399 132.870087,57.166183 
z"/>
<path fill="#6D993E" opacity="1.000000" stroke="none" 
	d="
M221.656998,280.528870 
	C223.847702,281.370483 225.418304,282.078003 223.898438,284.828339 
	C222.360886,287.610657 224.894394,290.368927 224.995239,293.623840 
	C220.300461,296.669189 215.184891,298.085968 209.526016,299.059631 
	C204.227936,297.655060 202.946411,294.567627 204.937866,289.609375 
	C206.533951,287.129578 209.063660,287.029999 211.226624,286.526459 
	C215.266327,285.586029 218.669739,283.835602 221.656998,280.528870 
z"/>
<path fill="#407035" opacity="1.000000" stroke="none" 
	d="
M132.375565,56.946320 
	C136.372162,56.838856 136.996536,59.274105 137.005554,62.610058 
	C129.857803,68.521172 123.163506,74.554970 116.293297,80.868530 
	C114.314301,78.694313 116.700348,75.416718 113.993454,72.994453 
	C119.282715,66.699806 125.661888,61.857906 132.375565,56.946320 
z"/>
<path fill="#558338" opacity="1.000000" stroke="none" 
	d="
M186.344788,17.974007 
	C179.142319,20.996601 172.138260,23.615173 164.774017,26.295593 
	C159.728790,24.103828 161.651276,21.169205 163.717468,17.845234 
	C170.417313,14.347798 177.296478,12.118820 184.616867,10.041597 
	C186.964584,12.256706 187.531906,14.754201 186.344788,17.974007 
z"/>
<path fill="#80AD41" opacity="1.000000" stroke="none" 
	d="
M243.216217,283.271973 
	C238.827972,282.119019 238.862076,278.771423 238.890427,274.956421 
	C240.607147,270.164948 244.056686,267.432129 248.210220,265.065735 
	C251.133621,265.226440 253.703934,265.354370 256.736084,265.601868 
	C257.390289,265.700653 257.582611,265.679901 258.049255,265.753845 
	C258.323547,265.848511 258.785980,265.723602 258.989014,265.852478 
	C255.271881,272.906067 249.541992,278.176849 243.216217,283.271973 
z"/>
<path fill="#252525" opacity="1.000000" stroke="none" 
	d="
M123.893326,362.055847 
	C121.077744,362.418640 120.256248,361.443634 120.307007,359.027496 
	C120.443253,352.541656 120.347977,346.051056 120.353798,339.562347 
	C120.355133,338.073547 120.398308,335.705994 122.331467,336.514252 
	C125.763618,337.949219 128.623840,336.646667 131.727051,335.972656 
	C133.184662,335.656006 134.359512,336.082336 134.271988,338.006042 
	C134.208191,339.408234 134.266418,340.489105 132.203918,340.448639 
	C126.516113,340.337006 125.728798,344.021240 125.528976,348.762756 
	C125.342789,353.180786 127.176956,357.855621 123.893326,362.055847 
z"/>
<path fill="#68963D" opacity="1.000000" stroke="none" 
	d="
M218.667755,131.892456 
	C217.199173,135.003372 217.623398,138.397537 216.934174,141.946030 
	C211.088348,142.970291 205.685562,141.311661 200.172729,138.939819 
	C199.410004,135.240265 201.229507,132.185989 200.998413,128.507202 
	C207.009323,128.189697 212.707870,129.790573 218.667755,131.892456 
z"/>
<path fill="#336635" opacity="1.000000" stroke="none" 
	d="
M97.010384,73.717934 
	C95.658333,71.380951 92.527306,72.081924 90.917923,69.944199 
	C91.189796,69.171616 91.518387,68.737885 92.079239,68.153053 
	C93.149109,67.289986 94.184708,66.769829 94.819748,65.396576 
	C99.028030,60.349339 103.673363,56.222370 108.635910,51.973999 
	C110.968353,53.246853 111.258972,55.887260 113.152176,57.793594 
	C107.953255,63.249756 102.616425,68.380836 97.010384,73.717934 
z"/>
<path fill="#417136" opacity="1.000000" stroke="none" 
	d="
M140.787445,29.245899 
	C141.461746,28.686626 141.914368,28.326151 142.660568,27.926046 
	C145.502762,29.379082 146.136780,31.900753 146.399689,34.921776 
	C146.264389,35.294407 146.096802,35.199413 146.191772,35.215466 
	C145.915085,35.193733 145.617294,35.329624 145.186493,35.791264 
	C139.266541,39.700974 133.543518,43.435158 127.485947,47.285812 
	C124.634529,45.586704 124.417465,42.976524 124.712250,39.763775 
	C129.118500,35.706734 133.958420,32.817642 139.163574,29.916138 
	C139.896927,29.846029 140.254074,29.707304 140.787445,29.245899 
z"/>
<path fill="#4C7B38" opacity="1.000000" stroke="none" 
	d="
M146.605591,35.211128 
	C145.258179,33.054291 144.251968,30.814175 143.099945,28.230238 
	C149.251282,23.636095 156.196014,20.667089 163.496674,17.571457 
	C164.928055,20.161739 161.168594,23.031601 164.275848,26.014988 
	C164.413818,26.357443 164.373108,26.337364 164.350693,26.335764 
	C163.966949,26.203119 163.661240,26.291246 163.205139,26.744522 
	C163.006638,26.920174 162.802994,27.157875 162.646576,27.153017 
	C162.100525,27.159969 161.751190,27.281460 161.230728,27.715487 
	C156.324097,30.309553 151.635452,32.718700 146.605591,35.211128 
z"/>
<path fill="#6D993E" opacity="1.000000" stroke="none" 
	d="
M222.571915,2.129176 
	C221.619003,4.715206 222.610611,7.237813 223.097778,10.190495 
	C216.385788,11.768093 209.643311,12.920721 202.487640,14.055548 
	C199.562469,14.134334 200.495712,12.466469 201.143082,11.682091 
	C202.786743,9.690628 201.695755,8.162118 200.817688,6.199687 
	C207.826736,3.570214 215.044586,3.146966 222.571915,2.129176 
z"/>
<path fill="#0F0F0F" opacity="1.000000" stroke="none" 
	d="
M284.228455,337.972717 
	C286.309662,337.073883 288.114532,335.952423 290.414398,335.958740 
	C292.004028,335.963135 292.917145,336.412140 292.884491,338.207581 
	C292.859894,339.555634 292.650543,340.360474 290.996582,340.333801 
	C284.965759,340.236542 283.461975,343.820007 283.827393,349.112518 
	C284.055237,352.412323 283.795502,355.742981 283.898895,359.055298 
	C283.959595,360.999664 283.664246,362.070587 281.269531,362.105011 
	C278.514069,362.144684 278.979095,360.457062 278.977295,358.864319 
	C278.970123,352.564819 279.036957,346.264465 278.953979,339.966064 
	C278.891724,335.240051 280.891632,335.401703 284.228455,337.972717 
z"/>
<path fill="#C7DB41" opacity="1.000000" stroke="none" 
	d="
M375.089722,76.065567 
	C365.140930,68.228378 355.600494,60.058926 344.625763,53.862030 
	C338.476379,50.389782 332.202209,47.138508 325.718903,43.542450 
	C326.099762,42.016132 327.205322,41.581329 329.020264,41.716179 
	C344.933136,48.816212 358.082458,59.135460 370.592194,70.368019 
	C372.194183,71.806458 373.660431,73.396049 375.360474,75.200500 
	C375.465332,75.646805 375.399231,75.808228 375.089722,76.065567 
z"/>
<path fill="#386A32" opacity="1.000000" stroke="none" 
	d="
M124.442291,39.483906 
	C125.508835,41.738293 126.258133,44.154869 127.079407,46.986866 
	C122.780922,50.955887 117.862320,53.819252 113.604462,58.014618 
	C109.737305,57.929382 110.025345,54.781738 109.000244,52.231407 
	C113.550446,47.211979 118.785027,43.363522 124.442291,39.483906 
z"/>
<path fill="#659141" opacity="1.000000" stroke="none" 
	d="
M200.534134,5.883094 
	C205.795776,8.081305 203.902786,10.836863 201.823914,13.832783 
	C197.029846,15.454399 191.985214,16.871056 186.543472,18.332874 
	C185.767258,15.877614 185.388168,13.377192 185.006439,10.460510 
	C189.818222,7.838703 194.966476,6.849235 200.534134,5.883094 
z"/>
<path fill="#1D1D1D" opacity="1.000000" stroke="none" 
	d="
M445.615204,354.861328 
	C444.650269,357.513031 447.964172,361.724152 443.274536,361.899109 
	C438.216522,362.087830 441.107849,357.750061 440.909912,355.613892 
	C440.454315,350.697235 440.661285,345.706940 440.813599,340.753082 
	C440.864136,339.108856 439.509399,336.449799 443.019165,336.384674 
	C446.797699,336.314606 445.509888,339.154877 445.568726,340.994049 
	C445.711365,345.452240 445.615204,349.918091 445.615204,354.861328 
z"/>
<path fill="#8AB749" opacity="1.000000" stroke="none" 
	d="
M275.237000,28.294825 
	C266.943329,28.019236 258.956879,26.688910 250.407837,26.741390 
	C248.526047,25.073931 248.606689,23.367275 249.703186,21.203821 
	C257.853302,20.258543 265.554993,21.932676 273.654602,23.054478 
	C275.325348,24.513889 276.058960,26.059383 275.237000,28.294825 
z"/>
<path fill="#477639" opacity="1.000000" stroke="none" 
	d="
M137.232529,282.114777 
	C138.990555,277.364624 136.686188,273.002563 136.876312,268.261475 
	C137.403976,267.782532 137.793549,267.811249 138.430817,268.167694 
	C139.013245,268.595428 139.341888,268.848663 139.938171,269.274200 
	C142.686050,271.216187 145.513809,272.601349 146.964737,275.869019 
	C146.467712,280.369293 150.581970,284.153717 147.955032,288.897034 
	C143.971680,287.651520 140.782928,284.888519 137.232529,282.114777 
z"/>
<path fill="#1D1D1D" opacity="1.000000" stroke="none" 
	d="
M535.783081,331.628845 
	C536.525146,335.944000 535.303345,339.228546 532.236206,341.717346 
	C527.669189,345.423187 520.717590,344.633087 517.119629,340.102509 
	C513.612854,335.686768 514.461792,329.430573 519.024780,326.062561 
	C523.796814,322.540253 530.510010,323.469696 534.039307,328.206055 
	C534.719116,329.118408 535.134399,330.227905 535.783081,331.628845 
z"/>
<path fill="#98C843" opacity="1.000000" stroke="none" 
	d="
M282.314514,12.232161 
	C281.451477,9.721480 280.685699,7.445564 280.987976,4.614925 
	C286.874115,4.862562 292.570801,6.393875 298.616852,8.151167 
	C300.876343,10.628814 300.151978,12.833849 298.256561,15.270678 
	C292.805573,14.508858 287.721985,13.471771 282.314514,12.232161 
z"/>
<path fill="#68963D" opacity="1.000000" stroke="none" 
	d="
M212.306183,29.603859 
	C206.368256,31.348009 200.738983,32.793728 194.718811,34.258736 
	C192.259720,32.723606 191.985947,30.622873 192.679504,27.838299 
	C198.484116,25.291725 204.441193,24.572731 210.648346,23.271122 
	C211.204453,23.336403 211.367264,23.382858 211.754456,23.310287 
	C212.145996,23.144178 212.313187,23.097097 212.739349,23.078615 
	C214.765427,25.290529 214.298843,27.335642 212.306183,29.603859 
z"/>
<path fill="#558338" opacity="1.000000" stroke="none" 
	d="
M160.301392,48.518066 
	C160.383087,46.091988 161.184540,43.537586 158.993317,41.031425 
	C163.339371,37.756653 168.564468,35.916382 174.031296,33.827042 
	C178.244278,34.334763 178.430054,34.873108 176.288574,40.539810 
	C170.872910,43.407398 165.748932,45.916859 160.301392,48.518066 
z"/>
<path fill="#59873C" opacity="1.000000" stroke="none" 
	d="
M176.362442,40.880035 
	C174.972031,38.673771 178.122314,35.944462 174.769424,33.883339 
	C179.962524,30.839216 186.076584,29.377628 192.461975,27.480825 
	C193.282364,29.401062 193.708069,31.407103 194.230865,33.845585 
	C194.327942,34.278023 194.298615,34.248463 194.278442,34.247269 
	C194.258255,34.246075 193.788467,34.231956 193.788467,34.231956 
	C193.788467,34.231956 193.432602,34.539059 193.226166,34.652214 
	C187.589142,36.797619 182.158554,38.829872 176.362442,40.880035 
z"/>
<path fill="#74A23E" opacity="1.000000" stroke="none" 
	d="
M249.489960,20.743141 
	C249.955841,22.484825 249.964417,24.147213 249.962692,26.221464 
	C247.261124,26.690187 244.569855,26.747044 241.431976,26.748158 
	C240.816711,26.651644 240.648026,26.610870 240.241348,26.675625 
	C236.297455,27.077728 232.591522,27.374302 228.420059,27.641979 
	C227.099533,25.638704 223.452011,23.987137 227.605377,21.326145 
	C229.353668,21.072577 230.741592,20.968328 232.544312,20.919888 
	C233.154556,20.859098 233.350021,20.742500 233.854431,20.771152 
	C239.119827,20.832216 244.076248,20.748030 249.489960,20.743141 
z"/>
<path fill="#A7CE3F" opacity="1.000000" stroke="none" 
	d="
M298.201050,15.698667 
	C298.114136,13.367604 299.388062,11.368654 298.990662,8.683437 
	C304.349640,9.320504 309.434052,11.243552 314.799927,13.365138 
	C316.362183,15.676191 316.308624,17.705652 314.335632,19.916838 
	C308.807861,18.744385 303.660400,17.297890 298.201050,15.698667 
z"/>
<path fill="#B8D53D" opacity="1.000000" stroke="none" 
	d="
M314.209900,20.425547 
	C314.311249,18.275131 314.667236,16.359383 315.051819,14.005132 
	C320.489044,14.843790 325.442596,17.300938 330.724640,19.765354 
	C329.265900,21.659899 330.320740,23.804731 329.870117,26.128683 
	C324.704590,24.604445 319.584564,22.632330 314.209900,20.425547 
z"/>
<path fill="#98C843" opacity="1.000000" stroke="none" 
	d="
M275.383179,28.725243 
	C274.660065,27.007772 274.335297,25.432526 274.001831,23.505091 
	C281.281586,23.885424 288.323090,25.718653 295.637054,28.068491 
	C297.171539,30.029694 295.633423,30.840170 294.302185,32.009632 
	C287.905884,31.067198 281.843719,29.967331 275.383179,28.725243 
z"/>
<path fill="#477639" opacity="1.000000" stroke="none" 
	d="
M140.332123,158.100006 
	C138.324417,154.827240 136.568481,151.717255 136.757370,147.503326 
	C138.478683,144.827835 140.957520,143.494385 143.561096,141.797974 
	C144.585968,145.192520 148.316254,148.078049 145.997955,152.576874 
	C145.619354,156.140747 143.064819,157.104370 140.332123,158.100006 
z"/>
<path fill="#719E3E" opacity="1.000000" stroke="none" 
	d="
M227.538025,21.127024 
	C224.532150,23.069204 228.891495,24.938711 227.968414,27.218382 
	C222.913467,28.401951 217.872421,29.190819 212.414459,29.940987 
	C212.414978,27.911999 213.339661,26.006435 213.000031,23.498600 
	C217.592194,21.664976 222.393570,21.665262 227.538025,21.127024 
z"/>
<path fill="#A7CE3F" opacity="1.000000" stroke="none" 
	d="
M294.240570,32.403458 
	C293.788422,30.594725 295.404755,30.052486 295.932373,28.528885 
	C301.669922,29.419407 307.046539,31.520700 312.693970,33.919674 
	C313.747009,35.143486 314.085876,36.234653 313.246399,37.808247 
	C306.807190,36.311752 300.660126,34.475803 294.240570,32.403458 
z"/>
<path fill="#B8D53D" opacity="1.000000" stroke="none" 
	d="
M313.196533,38.398468 
	C312.969513,37.072796 312.984772,35.997890 312.999023,34.520737 
	C318.588989,35.925922 323.872498,38.419281 329.233276,41.554539 
	C328.416748,42.243336 327.355377,42.664131 325.873779,43.191078 
	C321.448608,41.747902 317.443726,40.198574 313.196533,38.398468 
z"/>
<path fill="#C7DB41" opacity="1.000000" stroke="none" 
	d="
M429.116211,118.331848 
	C429.358948,117.716225 429.647705,117.451241 430.060730,116.913521 
	C434.789062,124.274887 437.588226,132.633575 440.127960,141.110672 
	C436.386139,133.661072 433.207916,125.962074 429.116211,118.331848 
z"/>
<path fill="#252525" opacity="1.000000" stroke="none" 
	d="
M443.113800,325.354523 
	C446.842804,325.609009 445.454163,328.179199 445.577423,329.880432 
	C445.675110,331.228271 444.441101,331.302551 443.440216,331.230316 
	C442.412415,331.156097 440.709991,331.765167 440.844727,329.965851 
	C440.966827,328.335236 439.360046,325.720093 443.113800,325.354523 
z"/>
<path fill="#5D8551" opacity="1.000000" stroke="none" 
	d="
M79.892838,295.661255 
	C83.459358,298.254913 83.159416,303.299438 86.115753,306.775574 
	C86.141357,306.618958 86.120926,306.743896 86.100494,306.868866 
	C85.838219,306.682648 85.558533,306.516602 85.316345,306.307159 
	C82.566772,303.929474 80.981514,300.740234 79.216896,297.288635 
	C79.409447,296.635010 79.646545,296.307129 79.892838,295.661255 
z"/>
<path fill="#1D1D1D" opacity="1.000000" stroke="none" 
	d="
M118.958176,301.391998 
	C119.111488,300.876282 119.430733,300.658081 119.891983,300.183838 
	C123.218132,302.597046 126.827461,304.807404 128.720779,309.023468 
	C125.521889,306.578796 122.322998,304.134155 118.958176,301.391998 
z"/>
<path fill="#2E6238" opacity="1.000000" stroke="none" 
	d="
M95.944817,200.572968 
	C95.483505,200.979874 95.155708,201.038910 94.582649,201.047943 
	C95.508530,197.924271 94.268021,193.975952 97.916031,191.365173 
	C97.446602,194.080109 96.762474,197.152588 95.944817,200.572968 
z"/>
<path fill="#252525" opacity="1.000000" stroke="none" 
	d="
M247.326630,296.910828 
	C246.786942,296.722137 246.573822,296.444122 246.118698,296.052002 
	C248.642395,293.637726 251.408081,291.337585 254.490753,288.922607 
	C255.006454,288.862549 255.205185,288.917358 255.622452,289.190887 
	C253.573410,292.390289 250.407242,294.378296 247.326630,296.910828 
z"/>
<path fill="#7F7F7E" opacity="1.000000" stroke="none" 
	d="
M209.233841,99.852135 
	C208.821655,99.425873 208.796219,99.080070 208.809982,98.476273 
	C210.043320,97.986397 211.202301,97.830795 211.757874,99.723587 
	C211.190659,99.970406 210.405624,99.951500 209.233841,99.852135 
z"/>
<path fill="#2E6238" opacity="1.000000" stroke="none" 
	d="
M94.772629,65.251907 
	C94.996185,66.553192 94.978241,67.979286 92.651764,67.989769 
	C93.041412,67.119644 93.771324,66.237343 94.772629,65.251907 
z"/>
<path fill="#252525" opacity="1.000000" stroke="none" 
	d="
M258.150635,285.542236 
	C258.699615,284.882507 259.075348,284.572144 259.451111,284.261749 
	C259.582092,284.673645 259.948944,285.246735 259.798767,285.466492 
	C259.388214,286.067200 258.827728,286.840637 258.150635,285.542236 
z"/>
<path fill="#7F7F7E" opacity="1.000000" stroke="none" 
	d="
M211.939392,100.032242 
	C212.209457,100.118065 212.498810,100.195885 212.788147,100.273697 
	C212.737396,100.340919 212.686630,100.408142 212.635880,100.475372 
	C212.518524,100.369415 212.401184,100.263458 212.129776,100.073402 
	C211.975708,99.989304 211.958679,100.024223 211.939392,100.032242 
z"/>
<path fill="#C7DB41" opacity="1.000000" stroke="none" 
	d="
M382.529938,83.010147 
	C382.533630,83.083504 382.402740,83.002464 382.402740,83.002464 
	C382.402740,83.002464 382.526245,82.936798 382.529938,83.010147 
z"/>
<path fill="#719E3E" opacity="1.000000" stroke="none" 
	d="
M240.706696,251.649628 
	C240.179260,252.945023 240.158386,252.072128 240.015015,251.266510 
	C240.149323,251.197632 240.301727,251.335388 240.706696,251.649628 
z"/>
<path fill="#80AD41" opacity="1.000000" stroke="none" 
	d="
M232.260254,9.829836 
	C232.168900,9.433346 232.415115,9.315856 232.858475,9.565987 
	C232.960709,9.688958 232.502914,9.864187 232.260254,9.829836 
z"/>
<path fill="#8CBB43" opacity="1.000000" stroke="none" 
	d="
M256.781342,9.294605 
	C256.900177,9.066418 257.195679,9.079346 257.675018,9.297483 
	C257.862854,9.413324 257.417084,9.554261 257.417084,9.554261 
	C257.417084,9.554261 256.961945,9.446352 256.781342,9.294605 
z"/>
<path fill="#4C7B38" opacity="1.000000" stroke="none" 
	d="
M145.258453,35.945061 
	C145.242310,35.726974 145.495041,35.487164 146.017273,35.239433 
	C146.033615,35.462120 145.780487,35.692726 145.258453,35.945061 
z"/>
<path fill="#558338" opacity="1.000000" stroke="none" 
	d="
M161.310913,27.897335 
	C161.310486,27.664568 161.608231,27.428730 162.198059,27.170525 
	C162.196457,27.396858 161.902771,27.645561 161.310913,27.897335 
z"/>
<path fill="#1D1D1D" opacity="1.000000" stroke="none" 
	d="
M130.507446,309.493500 
	C130.508072,309.512970 130.506836,309.474030 130.507446,309.493500 
z"/>
<path fill="#68963D" opacity="1.000000" stroke="none" 
	d="
M193.266922,34.796265 
	C193.182068,34.458855 193.432800,34.268974 194.015076,34.220894 
	C194.141373,34.607735 193.893326,34.801434 193.266922,34.796265 
z"/>
<path fill="#4C7B38" opacity="1.000000" stroke="none" 
	d="
M140.705017,29.071106 
	C140.703827,29.296656 140.398544,29.546213 139.790054,29.818085 
	C139.791534,29.591970 140.096237,29.343542 140.705017,29.071106 
z"/>
<path fill="#8AB749" opacity="1.000000" stroke="none" 
	d="
M234.027222,20.808018 
	C233.963730,20.947647 233.764053,20.978891 233.261734,20.992916 
	C233.269745,20.883673 233.580414,20.791651 234.027222,20.808018 
z"/>
<path fill="#8AB749" opacity="1.000000" stroke="none" 
	d="
M240.254791,26.824368 
	C240.167618,26.411655 240.426086,26.295721 240.882065,26.562885 
	C240.825653,26.750805 240.665924,26.809193 240.254791,26.824368 
z"/>
<path fill="#558338" opacity="1.000000" stroke="none" 
	d="
M163.268066,26.924366 
	C163.270508,26.702438 163.534378,26.484703 164.063263,26.300564 
	C164.062012,26.532291 163.795746,26.730425 163.268066,26.924366 
z"/>
<path fill="#719E3E" opacity="1.000000" stroke="none" 
	d="
M211.737442,23.148727 
	C211.978821,23.191257 211.681580,23.551497 211.681580,23.551497 
	C211.681580,23.551497 211.242676,23.538853 211.142151,23.414398 
	C211.041626,23.289946 211.496063,23.106195 211.737442,23.148727 
z"/>
<path fill="#2E6238" opacity="1.000000" stroke="none" 
	d="
M98.066803,191.044403 
	C98.051331,191.064133 98.201492,190.904083 98.201492,190.904083 
	C98.201492,190.904083 97.961159,190.955978 98.045944,190.981796 
	C98.130737,191.007614 98.082268,191.024673 98.066803,191.044403 
z"/>
<path fill="#C7DB41" opacity="1.000000" stroke="none" 
	d="
M375.354858,75.649055 
	C375.803070,75.657196 376.047272,75.861816 376.390442,76.305176 
	C376.470642,76.684097 376.424377,76.857086 376.116699,77.091850 
	C375.507690,77.091530 375.234436,76.914566 374.940918,76.392120 
	C374.846313,76.161476 375.178284,75.812729 375.354858,75.649055 
z"/>
<path fill="#252525" opacity="1.000000" stroke="none" 
	d="
M255.881287,288.110443 
	C256.136963,287.337982 256.455536,286.702606 257.130554,287.211792 
	C257.290924,287.332764 257.075500,287.951935 256.719177,288.590881 
	C256.255280,288.697266 256.105133,288.554688 255.881287,288.110443 
z"/>
<path fill="#252525" opacity="1.000000" stroke="none" 
	d="
M256.274292,288.571411 
	C256.344055,289.019958 256.236755,289.166473 255.962280,289.344482 
	C255.661621,289.321625 255.482239,289.233612 255.055298,288.976685 
	C254.977997,288.524353 255.148270,288.240906 255.563065,287.883118 
	C255.919434,287.973541 256.031281,288.138306 256.274292,288.571411 
z"/>
<path fill="#C7DB41" opacity="1.000000" stroke="none" 
	d="
M380.061584,81.234528 
	C380.207825,81.089973 380.694244,81.098495 380.705597,81.176277 
	C380.778992,81.679970 380.558655,81.767769 380.061584,81.234528 
z"/>
<path fill="#2D6137" opacity="1.000000" stroke="none" 
	d="
M79.511757,295.387482 
	C79.829247,295.760284 79.734657,296.161530 79.395287,296.754913 
	C79.133568,296.436676 79.116623,295.926300 79.511757,295.387482 
z"/>
<path fill="#C7DB41" opacity="1.000000" stroke="none" 
	d="
M380.008636,80.994537 
	C379.730316,80.826965 379.429443,80.677589 379.173340,80.178307 
	C379.521118,80.049141 379.824097,80.269890 380.034088,80.770027 
	C379.941101,81.049423 379.986053,81.012749 380.008636,80.994537 
z"/>
<path fill="#659141" opacity="1.000000" stroke="none" 
	d="
M184.252960,300.874023 
	C184.278381,300.715057 184.544769,300.635193 184.900116,300.699249 
	C184.824020,300.879852 184.658981,300.916504 184.252960,300.874023 
z"/>
<path fill="#C7DB41" opacity="1.000000" stroke="none" 
	d="
M378.192444,78.665100 
	C378.673218,78.859566 378.929016,79.087769 379.201477,79.572189 
	C379.218140,79.828400 379.083923,79.931450 379.019409,79.986740 
	C378.648804,79.904495 378.342651,79.766960 377.945129,79.384399 
	C377.853729,79.139381 377.967468,78.698830 378.192444,78.665100 
z"/>
<path fill="#C7DB41" opacity="1.000000" stroke="none" 
	d="
M377.993713,79.011337 
	C377.577820,78.960938 377.301910,78.782486 376.947937,78.363800 
	C376.869873,78.123566 376.965332,77.701500 377.180176,77.675789 
	C377.720459,77.746529 377.980408,77.933868 378.296143,78.421738 
	C378.417450,78.631363 378.133728,78.883293 377.993713,79.011337 
z"/>
<path fill="#C7DB41" opacity="1.000000" stroke="none" 
	d="
M376.346100,76.666153 
	C376.789917,76.696571 377.012054,76.930359 377.289154,77.431274 
	C377.394989,77.650078 377.130219,77.883698 377.000061,78.003632 
	C376.514221,78.084343 376.237274,77.915794 375.947144,77.385773 
	C375.855316,77.153633 376.175262,76.821190 376.346100,76.666153 
z"/>
<path fill="#F9F9F9" opacity="1.000000" stroke="none" 
	d="
M302.583130,358.400024 
	C296.809906,354.831787 295.355255,346.602203 299.523468,341.935944 
	C302.025421,339.135040 305.315552,338.428894 308.373260,340.797180 
	C312.397430,343.913971 311.880249,348.522919 310.804016,352.682648 
	C309.851654,356.363647 307.521088,359.235474 302.583130,358.400024 
z"/>
<path fill="#F0F0F0" opacity="1.000000" stroke="none" 
	d="
M16.654388,342.080353 
	C13.055554,343.108124 8.547557,344.213409 6.920630,342.062012 
	C4.687427,339.108887 6.319609,334.444550 6.268145,330.515625 
	C6.263014,330.123901 6.645527,329.592041 7.001230,329.352997 
	C9.042144,327.981354 17.574306,329.616730 19.200241,331.642731 
	C21.585577,334.615082 20.754131,338.593079 16.654388,342.080353 
z"/>
<path fill="#F6F6F6" opacity="1.000000" stroke="none" 
	d="
M285.599396,190.193634 
	C295.565643,191.984818 298.333832,194.985764 298.182281,203.391327 
	C298.059143,210.221466 293.952148,214.553116 287.170959,215.004974 
	C276.470703,215.717987 276.470825,215.717987 276.474213,205.130463 
	C276.474915,202.968048 276.474457,200.805634 276.474365,198.643219 
	C276.473999,190.118484 276.473999,190.118484 285.599396,190.193634 
z"/>
<path fill="#F9FBF8" opacity="1.000000" stroke="none" 
	d="
M248.534668,264.672729 
	C245.441696,268.060608 242.320084,271.022736 239.024094,274.245728 
	C237.460648,275.326721 236.071564,276.146820 234.369202,277.025452 
	C233.396805,273.060699 235.918411,269.736084 236.576691,265.585876 
	C237.329407,259.207611 242.651688,260.396973 246.639954,258.807983 
	C247.398285,258.475525 247.787064,258.474487 248.317673,258.907349 
	C248.472443,260.869476 248.489227,262.558197 248.534668,264.672729 
z"/>
<path fill="#719E3E" opacity="1.000000" stroke="none" 
	d="
M248.595154,258.823914 
	C248.140610,259.059631 247.825562,258.938477 247.262238,258.739624 
	C247.342972,257.570526 247.671997,256.479156 248.062927,255.039886 
	C248.328094,255.950363 248.531372,257.208740 248.595154,258.823914 
z"/>
<path fill="#719E3E" opacity="1.000000" stroke="none" 
	d="
M248.252899,251.153580 
	C248.118103,251.075348 248.114685,250.841278 248.193741,250.266266 
	C248.352142,250.156219 248.452423,250.382889 248.493607,250.619812 
	C248.513779,250.735962 248.424194,250.871170 248.252899,251.153580 
z"/>
<path fill="#719E3E" opacity="1.000000" stroke="none" 
	d="
M258.153992,265.712799 
	C258.323547,265.848511 257.938477,265.922058 257.938477,265.922058 
	C257.938477,265.922058 257.548950,265.878235 257.373474,265.799835 
	C257.421967,265.466827 257.684143,265.418701 258.153992,265.712799 
z"/>
<path fill="#FEFEFE" opacity="1.000000" stroke="none" 
	d="
M184.575775,217.851608 
	C186.233765,218.662079 187.174118,219.220169 187.161438,220.951797 
	C187.074051,232.875763 187.102173,244.800568 187.076813,256.725037 
	C187.075272,257.449310 186.643387,257.927704 185.493408,258.228912 
	C178.859909,260.809357 172.809204,259.163696 166.371368,257.384277 
	C164.862411,256.835815 163.746445,256.497681 162.606522,256.293365 
	C151.246384,254.257355 151.147491,254.279373 149.318619,242.951996 
	C148.181732,235.910538 147.870010,228.778931 147.439224,221.657288 
	C147.255371,218.617920 148.402130,218.432159 150.742249,218.469971 
	C155.552567,218.547714 160.366135,218.424500 165.594376,218.273590 
	C171.979599,215.215286 178.081650,216.027481 184.575775,217.851608 
z"/>
<path fill="#FEFEFE" opacity="1.000000" stroke="none" 
	d="
M186.604889,169.888580 
	C186.998016,182.583878 187.076370,194.954498 187.120071,207.325256 
	C187.123871,208.400513 187.465240,209.738831 185.410370,210.242920 
	C178.309830,212.532578 171.570572,211.767746 164.404907,210.611893 
	C159.499863,210.300400 155.014999,210.111038 150.536438,210.209122 
	C147.939590,210.266006 147.322861,209.513504 147.450729,206.814362 
	C147.891510,197.510406 148.872726,188.304932 150.427124,179.113831 
	C151.075333,175.280960 152.847626,173.717300 156.347961,173.242004 
	C158.647339,172.929779 160.921082,172.428787 163.598923,171.916275 
	C169.722687,169.273621 175.938751,169.651810 181.958633,168.851761 
	C183.456726,168.652679 184.949219,168.666870 186.604889,169.888580 
z"/>
<path fill="#FCFDFC" opacity="1.000000" stroke="none" 
	d="
M142.175186,250.964630 
	C136.735703,249.837173 131.673615,247.634811 126.344261,245.180939 
	C124.412270,244.213058 122.834450,243.281418 120.946770,242.197174 
	C120.583168,241.846817 120.529427,241.649048 120.224640,241.273880 
	C118.403595,235.013626 116.461510,229.032944 115.828438,222.714462 
	C115.509514,219.531387 116.137787,218.168640 119.651367,218.376648 
	C124.119293,218.641174 128.617035,218.402039 133.561646,218.273468 
	C135.089661,218.259232 136.157928,218.351578 137.622757,218.357590 
	C138.217926,218.088608 138.416534,217.905960 138.682709,218.122375 
	C139.171753,223.396225 139.593216,228.270981 140.080444,233.570374 
	C140.221512,234.156952 140.296799,234.318909 140.303406,234.739777 
	C140.923309,240.170547 141.611893,245.342377 142.175186,250.964630 
z"/>
<path fill="#FCFDFC" opacity="1.000000" stroke="none" 
	d="
M186.375336,290.020874 
	C179.455338,289.479980 172.979950,288.401581 166.371307,286.164490 
	C162.940109,285.148193 162.160568,282.307495 160.915329,279.839935 
	C158.312347,274.681732 155.995239,269.409973 154.290329,263.247711 
	C157.735565,263.774841 160.872742,264.254822 164.437225,264.721130 
	C172.063965,264.203308 179.270798,263.586304 186.627106,266.368530 
	C187.108261,274.343903 187.539642,282.066315 186.375336,290.020874 
z"/>
<path fill="#FCFDFC" opacity="1.000000" stroke="none" 
	d="
M163.859100,143.387939 
	C171.238235,140.861389 178.472610,138.741638 186.478119,138.362656 
	C187.227142,146.138016 187.491028,153.935272 186.355255,161.952484 
	C180.311050,163.764725 174.630905,165.091690 168.308960,163.634613 
	C163.545990,163.989868 159.177002,164.542282 154.229965,165.167786 
	C156.783066,157.344391 159.611984,150.252441 163.859100,143.387939 
z"/>
<path fill="#FCFDFC" opacity="1.000000" stroke="none" 
	d="
M123.881935,184.539902 
	C129.829681,181.951416 135.556519,179.621445 141.629395,177.184082 
	C141.246399,184.315750 140.517365,191.554825 139.807587,199.228012 
	C139.752060,199.856476 139.677261,200.050812 139.660126,200.552124 
	C139.534714,203.273148 139.351639,205.687195 139.220932,208.553436 
	C139.287308,209.189850 139.301315,209.374084 139.139435,209.772491 
	C137.573578,210.052780 136.183578,210.118896 134.388123,210.287354 
	C128.832764,210.318863 123.680183,210.121094 118.534103,210.230072 
	C115.911896,210.285614 115.364502,209.153259 115.782471,206.474670 
	C115.717857,205.835785 115.672844,205.659378 115.743576,205.235596 
	C116.698616,199.827286 117.822014,194.739502 119.393608,189.740707 
	C120.129700,187.399429 121.306374,185.643112 123.881935,184.539902 
z"/>
<path fill="#59873C" opacity="1.000000" stroke="none" 
	d="
M186.973297,266.297791 
	C179.847214,266.071045 172.711548,265.517578 165.220215,264.835785 
	C165.833481,262.560181 166.199463,260.311462 165.994080,257.539612 
	C172.041656,257.470184 178.093842,257.828552 184.606232,258.269714 
	C189.902634,259.845154 185.101471,263.737823 186.973297,266.297791 
z"/>
<path fill="#F6F6F6" opacity="1.000000" stroke="none" 
	d="
M138.208939,269.064728 
	C138.007355,268.453735 137.813278,268.209015 137.239136,268.008850 
	C134.488510,263.807251 130.406921,260.797638 128.065109,255.649124 
	C133.479263,257.334656 138.280792,258.829498 143.473175,260.398621 
	C146.963867,265.186432 147.366669,270.932373 149.758148,275.929260 
	C150.309692,277.081696 150.027847,277.216583 147.293579,276.277527 
	C144.642365,274.186981 142.292068,272.175354 139.650208,270.028809 
	C138.973190,269.792938 138.641220,269.599976 138.208939,269.064728 
z"/>
<path fill="#59873C" opacity="1.000000" stroke="none" 
	d="
M167.910599,163.847992 
	C173.612808,162.696640 179.312729,161.981354 185.520996,162.109085 
	C187.217545,164.744171 187.498947,166.778076 186.950302,169.828888 
	C179.523849,170.213303 172.177948,170.977417 164.418762,171.871094 
	C166.656982,170.004013 167.594513,167.293259 167.910599,163.847992 
z"/>
<path fill="#F9FBF8" opacity="1.000000" stroke="none" 
	d="
M139.861115,158.275665 
	C141.876236,156.487610 143.762695,155.009308 145.822571,153.252441 
	C147.139252,152.364914 148.282501,151.755966 150.140915,150.766098 
	C148.324524,156.390579 146.834961,161.469635 145.020355,166.429794 
	C144.080231,168.999619 141.139603,168.365524 138.851501,169.514755 
	C135.445053,170.631775 132.334244,171.506241 128.262222,172.650925 
	C131.545319,166.628342 135.554230,162.539825 139.861115,158.275665 
z"/>
<path fill="#558338" opacity="1.000000" stroke="none" 
	d="
M163.994415,210.730927 
	C170.673691,210.315018 177.365295,210.260895 184.517670,210.287659 
	C184.979172,212.679596 184.979919,214.990646 184.962250,217.742249 
	C178.936203,218.255112 172.928574,218.327393 166.465668,218.281433 
	C165.342514,215.806351 164.674637,213.449524 163.994415,210.730927 
z"/>
<path fill="#5D8551" opacity="1.000000" stroke="none" 
	d="
M140.367554,234.893616 
	C140.168686,234.835968 140.102615,234.673218 140.091400,234.252747 
	C140.264282,234.259521 140.382324,234.524017 140.367554,234.893616 
z"/>
<path fill="#5D8551" opacity="1.000000" stroke="none" 
	d="
M139.140991,209.936096 
	C138.994522,209.816635 139.025497,209.646622 139.164886,209.241119 
	C139.373169,209.211700 139.496262,209.411194 139.557556,209.628159 
	C139.574081,209.686768 139.403244,209.798309 139.140991,209.936096 
z"/>
<path fill="#5D8551" opacity="1.000000" stroke="none" 
	d="
M139.813004,200.672302 
	C139.444717,200.625702 139.387726,200.347885 139.686859,199.843887 
	C139.955536,199.926559 139.982666,200.201004 139.813004,200.672302 
z"/>
<path fill="#59873C" opacity="1.000000" stroke="none" 
	d="
M161.469543,170.452255 
	C161.522522,170.421158 161.416580,170.483353 161.469543,170.452255 
z"/>
<path fill="#5D8551" opacity="1.000000" stroke="none" 
	d="
M138.769302,218.304108 
	C138.750290,218.521454 138.349823,218.498367 138.184570,218.384827 
	C138.211166,217.941055 138.333740,217.321976 138.769302,218.304108 
z"/>
<path fill="#FEFEFE" opacity="1.000000" stroke="none" 
	d="
M207.588257,170.674850 
	C215.366577,171.741394 222.730148,172.882019 230.501114,174.029999 
	C234.441711,185.418289 234.884735,197.194534 235.547531,208.963257 
	C235.671310,211.160904 234.720840,210.978638 233.370331,210.979965 
	C230.545517,210.982773 227.720703,210.996536 224.441345,211.079483 
	C216.317108,213.742996 208.562576,212.822479 200.401123,211.429718 
	C196.321243,211.601059 195.316315,210.270111 195.466690,206.379257 
	C195.865143,196.071503 195.860840,185.727493 195.466080,175.419006 
	C195.284470,170.676056 197.098969,169.582458 201.210632,170.190964 
	C203.182571,170.482819 205.184906,170.569397 207.588257,170.674850 
z"/>
<path fill="#FDFEFD" opacity="1.000000" stroke="none" 
	d="
M233.944305,241.557312 
	C233.575882,243.904129 232.956924,245.794647 232.833771,247.716934 
	C232.542480,252.262512 230.403763,254.804916 225.368073,255.119553 
	C219.382645,258.971405 213.029877,258.675507 206.357788,258.383636 
	C204.932281,258.121765 203.870270,258.095520 202.416046,258.147552 
	C201.852676,258.274963 201.681503,258.324158 201.247375,258.326355 
	C196.835098,258.821869 195.306793,257.398254 195.474930,252.868225 
	C195.842010,242.977386 195.480026,233.060593 195.491516,223.154495 
	C195.493805,221.179413 194.689117,218.533508 198.581787,218.361145 
	C207.021179,215.685272 215.141144,215.676559 223.668121,217.856995 
	C224.833221,218.302048 225.639465,218.499207 226.454254,218.545303 
	C235.419022,219.052307 235.493561,219.049561 235.067429,227.836823 
	C234.852386,232.271164 234.312256,236.689758 233.944305,241.557312 
z"/>
<path fill="#F9FBF8" opacity="1.000000" stroke="none" 
	d="
M222.083435,280.066833 
	C218.961578,287.766144 211.790192,287.298157 205.383484,289.128052 
	C195.584885,290.496094 195.584885,290.496094 195.584854,280.820770 
	C195.584854,279.655121 195.585083,278.489471 195.584747,277.323822 
	C195.581589,266.639313 195.581558,266.639313 206.566269,265.921539 
	C212.400772,262.785095 218.329483,263.120880 224.606003,263.403290 
	C227.394455,263.131592 229.371246,262.886963 227.745941,266.467438 
	C225.767349,270.826202 224.008011,275.284515 222.083435,280.066833 
z"/>
<path fill="#FCFDFC" opacity="1.000000" stroke="none" 
	d="
M199.540131,138.604218 
	C205.377426,139.765091 210.749573,140.986282 216.514114,142.270325 
	C220.390076,143.904221 221.396606,147.349396 222.760513,150.403061 
	C224.815430,155.003769 226.554489,159.745544 228.446762,164.839142 
	C227.929413,165.419022 227.380875,165.484055 226.424316,165.314377 
	C220.733566,163.849686 215.344849,163.167755 209.459900,162.914429 
	C209.017578,162.968735 209.022812,162.997818 209.032532,162.986984 
	C208.931442,162.843796 208.820648,162.711441 208.496094,162.725159 
	C205.242645,161.865433 202.069778,162.038773 198.962646,162.064178 
	C196.404175,162.085083 195.485977,161.288986 195.554901,158.686996 
	C195.703384,153.081406 195.681427,147.466507 195.540207,141.860168 
	C195.472778,139.183548 196.572800,138.266541 199.540131,138.604218 
z"/>
<path fill="#68963D" opacity="1.000000" stroke="none" 
	d="
M224.018158,217.732117 
	C215.940552,218.284622 207.858078,218.394196 199.373566,218.360474 
	C199.313751,216.109375 199.656006,214.001556 199.998505,211.519836 
	C207.685272,211.107712 215.371765,211.069504 223.522537,211.092224 
	C223.995636,213.198502 224.004486,215.243851 224.018158,217.732117 
z"/>
<path fill="#6D993E" opacity="1.000000" stroke="none" 
	d="
M225.005524,263.256653 
	C219.274094,264.401367 213.553040,265.184235 207.412811,265.902863 
	C206.331009,263.590088 205.723969,261.333496 205.996613,258.548798 
	C212.069946,257.212006 218.244537,256.896332 224.600464,255.247223 
	C226.220871,257.795593 225.991974,260.344177 225.005524,263.256653 
z"/>
<path fill="#85AC5C" opacity="1.000000" stroke="none" 
	d="
M201.088684,258.418884 
	C201.155197,258.223816 201.326004,258.168274 201.760330,258.169250 
	C201.746887,258.336639 201.469925,258.447510 201.088684,258.418884 
z"/>
<path fill="#719E3E" opacity="1.000000" stroke="none" 
	d="
M208.405380,162.909729 
	C208.416809,162.633621 208.599701,162.587555 208.936615,162.854599 
	C209.042252,162.976151 208.783920,162.988083 208.783920,162.988083 
	C208.783920,162.988083 208.528427,162.948196 208.405380,162.909729 
z"/>
<path fill="#417136" opacity="1.000000" stroke="none" 
	d="
M120.033157,241.286316 
	C120.237099,241.207596 120.438286,241.388138 120.607033,241.841339 
	C120.399323,241.908920 120.217926,241.719452 120.033157,241.286316 
z"/>
<path fill="#5D8551" opacity="1.000000" stroke="none" 
	d="
M115.716171,205.082596 
	C115.898209,205.164078 115.937088,205.339935 115.869423,205.763992 
	C115.643921,205.832504 115.502304,205.662506 115.419029,205.467590 
	C115.391953,205.404205 115.517342,205.275681 115.716171,205.082596 
z"/>
<path fill="#F9FBF8" opacity="1.000000" stroke="none" 
	d="
M234.003403,277.000732 
	C233.797714,277.152740 233.610672,277.331757 233.423645,277.510773 
	C233.517410,277.278076 233.611176,277.045410 233.880447,276.948364 
	C234.055939,277.083984 234.022049,277.027771 234.003403,277.000732 
z"/>
<path fill="#7AA740" opacity="1.000000" stroke="none" 
	d="
M226.182953,165.374756 
	C226.571671,165.160767 227.114822,165.138947 228.061859,165.184021 
	C227.962494,166.745178 227.098450,165.809280 226.182953,165.374756 
z"/>
<path fill="#F9F9F9" opacity="1.000000" stroke="none" 
	d="
M152.909363,351.968628 
	C153.238968,350.311768 153.360229,348.932068 153.966797,347.816223 
	C156.819336,342.568420 159.461792,342.274231 163.255249,346.681732 
	C164.869217,348.556946 166.219833,350.710907 168.045334,352.340271 
	C171.159851,355.120117 169.537247,356.690948 166.964523,358.266907 
	C160.986572,361.928711 154.915359,359.381561 152.909363,351.968628 
z"/>
<path fill="#F9F9F9" opacity="1.000000" stroke="none" 
	d="
M166.282547,333.706665 
	C165.618652,336.614532 163.741394,338.145538 161.561035,338.742584 
	C159.947800,339.184296 159.355850,337.099182 158.668320,335.887817 
	C157.575653,333.962555 157.030838,331.807587 158.520645,329.888214 
	C159.530838,328.586761 161.046677,327.680115 162.847794,328.161896 
	C165.442703,328.855896 166.568634,330.666046 166.282547,333.706665 
z"/>
<path fill="#F9F9F9" opacity="1.000000" stroke="none" 
	d="
M260.059204,347.133179 
	C257.017822,347.424500 255.837982,346.809235 256.864532,343.879089 
	C258.290955,339.807556 262.201599,337.907654 265.884857,339.756561 
	C268.442657,341.040436 269.610138,343.393890 269.131195,345.884460 
	C268.652039,348.376190 266.101257,346.773773 264.507660,347.083038 
	C263.231873,347.330566 261.869751,347.133270 260.059204,347.133179 
z"/>
<path fill="#F6F6F6" opacity="1.000000" stroke="none" 
	d="
M467.635132,346.918823 
	C464.215088,347.113678 461.207153,346.974915 458.222717,347.179352 
	C455.055603,347.396301 455.034241,346.037781 455.938049,343.652924 
	C457.165039,340.415222 459.452148,338.665192 462.806549,339.150269 
	C467.017761,339.759277 468.558594,342.645416 467.635132,346.918823 
z"/>
<path fill="#F9F9F9" opacity="1.000000" stroke="none" 
	d="
M101.976631,339.749451 
	C104.291702,338.678741 106.211594,338.848419 107.985802,339.991730 
	C110.090988,341.348297 111.342461,343.485718 110.857239,345.843689 
	C110.328903,348.411224 107.856796,346.693237 106.305580,347.105804 
	C105.536118,347.310425 104.639221,347.277069 103.848869,347.114197 
	C101.926132,346.717865 98.956161,348.487671 98.259171,345.990112 
	C97.615562,343.683777 99.288605,341.297363 101.976631,339.749451 
z"/>
<path fill="#F9F9F9" opacity="1.000000" stroke="none" 
	d="
M404.258118,356.120087 
	C398.702728,361.083374 393.263428,359.840424 391.501740,353.394104 
	C390.229065,348.737213 390.343445,344.050842 394.322296,340.560486 
	C396.691803,338.481842 399.757721,338.516418 402.176178,340.356903 
	C406.423889,343.589508 406.514984,348.219269 405.458527,352.978607 
	C405.245941,353.936310 404.798340,354.841858 404.258118,356.120087 
z"/>
<path fill="#F9F9F9" opacity="1.000000" stroke="none" 
	d="
M34.731232,358.723389 
	C29.601095,354.269714 28.568644,347.678986 31.844820,342.480499 
	C34.146458,338.828369 38.926353,338.056488 42.146748,340.816895 
	C45.085232,343.335693 46.034374,350.248718 44.100533,354.828156 
	C42.348495,358.977081 39.059841,359.664093 34.731232,358.723389 
z"/>
<path fill="#417136" opacity="1.000000" stroke="none" 
	d="
M138.185059,269.084869 
	C138.395340,269.001343 138.735550,269.188263 139.217194,269.634521 
	C139.010757,269.714386 138.662857,269.534821 138.185059,269.084869 
z"/>
<path fill="#F6F6F6" opacity="1.000000" stroke="none" 
	d="
M530.933105,327.957672 
	C534.469604,331.521027 535.118530,335.200836 532.042175,338.845642 
	C529.482544,341.878174 526.090759,342.925262 522.236145,341.257629 
	C517.816650,339.345612 515.970947,335.193329 517.686096,331.161072 
	C519.775391,326.248901 524.720703,324.936584 530.933105,327.957672 
z"/>
<path fill="#090909" opacity="1.000000" stroke="none" 
	d="
M521.000244,334.835754 
	C521.011108,328.945526 522.140015,327.873047 526.498352,329.082123 
	C528.155701,329.541931 529.649475,330.960815 528.805359,332.175812 
	C527.019348,334.746674 528.723938,336.539703 529.643066,338.331238 
	C527.063049,340.952911 524.162476,328.907867 522.395386,339.125031 
	C520.166931,338.263519 521.365112,336.515228 521.000244,334.835754 
z"/>
</svg>