<svg version="1.1" id="Layer_1" xmlns="http://www.w3.org/2000/svg" xmlns:xlink="http://www.w3.org/1999/xlink" x="0px" y="0px"
	 width="100%" viewBox="0 0 300 110" enable-background="new 0 0 300 110" xml:space="preserve">
<path fill="#000000" opacity="1.000000" stroke="none" 
	d="
M211.411652,110.749054 
	C142.466995,111.000000 73.933899,110.957642 5.401223,111.109383 
	C1.453972,111.118118 0.608896,110.016174 0.925319,106.411949 
	C1.258632,102.615341 1.000000,98.766777 1.000000,94.470459 
	C2.379416,92.371849 3.763790,91.466881 5.241500,93.909210 
	C10.953565,103.350021 20.029499,105.638763 30.183840,105.617546 
	C37.105152,105.603081 44.048641,105.728363 50.538654,102.734390 
	C46.002438,102.387390 41.639725,103.651932 37.183750,104.004593 
	C30.743780,104.514275 24.473469,103.617683 18.827150,100.499710 
	C10.731815,96.029358 8.157232,87.764107 11.442590,78.001434 
	C13.550099,71.738823 17.129459,66.285767 21.571203,61.497036 
	C26.890345,55.762375 32.308064,50.099277 38.760288,45.539207 
	C40.530743,44.287949 43.530476,43.191822 42.573368,40.383720 
	C41.747421,37.960464 38.884422,38.749245 36.803364,38.507000 
	C35.196983,38.320000 33.439644,38.831356 31.920868,37.154446 
	C31.500683,35.883881 30.973654,34.477806 31.757103,34.049667 
	C36.061356,31.697460 40.472816,29.159075 45.577629,29.685238 
	C50.176224,30.159225 54.175041,32.036728 56.540806,36.488060 
	C58.691460,40.534649 58.344845,44.477909 56.563492,48.460400 
	C53.402405,55.527493 48.185726,60.759842 41.764359,64.894722 
	C40.786098,65.524643 39.722633,66.012024 38.700233,66.568283 
	C32.330479,70.033890 32.118618,72.462730 37.949543,77.062950 
	C44.737434,82.418144 51.332268,88.011330 58.156044,93.322052 
	C60.900574,95.458031 63.271214,98.111092 67.004044,99.330818 
	C67.870895,99.421280 68.420807,99.440407 69.033600,98.837349 
	C69.939392,96.569000 68.630600,95.071648 67.722908,93.550987 
	C64.483528,88.124031 61.472290,82.567635 58.282787,77.112572 
	C54.704880,70.993202 54.826675,70.127533 59.838486,65.100075 
	C62.444229,62.486191 64.827377,59.766682 66.129486,56.227970 
	C72.111351,39.971188 60.839420,26.660017 43.473083,29.544420 
	C39.883259,30.140661 36.543716,31.500519 33.281010,33.140232 
	C31.553806,34.008259 30.774403,34.903282 31.795753,37.094326 
	C32.105927,38.847588 31.188145,39.569462 30.124743,40.117107 
	C18.244633,46.235302 11.097551,56.405254 5.838994,68.253609 
	C5.103383,69.911057 4.813429,73.257225 1.274513,70.272835 
	C1.000000,48.064354 1.071306,26.128197 0.913318,4.193688 
	C0.892651,1.324419 1.621173,0.915059 4.288264,0.927658 
	C29.879280,1.048553 55.471096,1.000000 81.531342,1.000000 
	C85.093025,3.710755 83.135506,4.689417 80.497276,5.596807 
	C74.198662,7.763144 67.822739,9.719110 61.770679,12.561980 
	C56.006302,15.269715 50.817680,19.000195 45.615334,21.780622 
	C48.839310,21.356987 52.625824,21.014442 56.254925,21.921867 
	C60.696388,23.032415 64.332458,21.805441 68.060318,19.507837 
	C77.470482,13.708035 87.380707,9.039835 98.355911,6.922447 
	C108.520645,4.961418 117.273804,8.422330 122.337952,16.249537 
	C125.435036,21.036436 125.012985,26.311531 124.157013,31.266825 
	C123.078323,37.511387 120.236198,43.275047 115.816376,48.057308 
	C114.544083,49.433926 113.125954,50.604786 111.091988,50.007473 
	C108.923531,49.370667 108.591965,47.513744 108.554115,45.615433 
	C108.487465,42.272640 108.174324,38.963673 107.485916,35.690201 
	C107.105186,33.879784 106.834999,31.891895 104.718620,31.323677 
	C102.331314,30.682716 100.964287,32.401329 99.904381,34.104527 
	C95.237297,41.604172 91.104309,49.414539 86.914886,57.181911 
	C82.960945,64.512657 78.923706,71.800041 75.056519,79.178230 
	C74.437042,80.360146 73.739861,81.503494 73.418869,82.812340 
	C72.870163,85.049751 73.009872,87.199959 74.880638,88.775963 
	C76.921967,90.495682 79.003410,89.606354 80.871048,88.377762 
	C86.452507,84.706123 91.512749,80.358688 96.524940,75.967323 
	C106.907188,66.871078 115.610985,56.448719 121.587982,43.898201 
	C124.215912,38.380066 125.359627,32.540279 125.446297,26.468559 
	C125.571793,17.676432 121.853683,11.128618 114.160599,6.742526 
	C112.341698,5.705507 108.590820,5.161663 111.745110,1.255908 
	C125.354225,1.000000 138.708450,1.000000 152.531342,1.000000 
	C154.287216,2.133948 154.487473,3.111530 154.056442,5.085210 
	C153.192490,9.041088 152.203064,13.010569 151.639938,16.417801 
	C153.567337,11.965431 152.239746,5.876332 156.740372,1.259638 
	C158.066666,1.000000 159.133347,1.000000 160.600006,1.000000 
	C162.422363,2.310743 163.362595,3.535760 162.586304,5.826453 
	C161.404678,9.313252 161.341888,13.095056 160.134613,16.642473 
	C159.509506,18.479225 159.193710,20.728079 161.680283,21.978037 
	C158.601425,18.313194 159.560791,13.747417 163.682938,12.197519 
	C163.448868,12.305676 164.385086,12.576421 163.735687,12.353115 
	C160.819412,11.350342 161.930145,9.007577 162.269028,7.041338 
	C162.690964,4.593226 164.532394,3.785436 166.752121,3.576916 
	C169.149139,3.351742 171.793289,3.946077 173.751678,1.248504 
	C174.750000,1.000000 175.500000,1.000000 176.625000,1.000000 
	C178.392914,2.328128 179.071167,3.742095 178.398132,5.798244 
	C177.269653,9.245748 177.483047,12.968488 176.134918,16.453302 
	C175.406067,18.337276 175.168137,20.922306 177.825882,22.102942 
	C174.972000,19.499897 175.427826,14.132263 178.732010,12.375259 
	C179.011246,12.226764 179.345734,12.265033 179.603073,12.241058 
	C179.373688,11.976691 179.038483,12.316011 178.936325,12.226972 
	C177.099655,10.626188 177.789093,8.641356 178.271774,6.783630 
	C178.791321,4.784008 180.313812,4.649704 182.187042,4.666514 
	C184.702408,4.689087 187.073059,3.889550 188.752594,1.247632 
	C190.066666,1.000000 191.133347,1.000000 192.600006,1.000000 
	C194.365997,2.376067 195.091705,3.338204 194.262009,5.863472 
	C193.159576,9.218806 192.904602,12.986747 192.150436,16.563927 
	C191.735794,18.530739 191.185532,20.921331 193.490250,21.864496 
	C190.583603,20.544762 191.526047,17.429651 192.326370,15.434156 
	C193.313690,12.972411 193.968475,10.777987 193.853470,8.084373 
	C193.721848,5.001344 195.529739,3.315073 198.869675,3.489603 
	C201.282318,3.615678 203.769821,3.640206 205.766785,1.234248 
	C236.580429,1.000000 267.161041,1.044381 297.740967,0.923822 
	C300.469879,0.913063 301.106903,1.416589 301.083252,4.223705 
	C300.923584,23.168919 301.000000,42.116123 301.000000,61.531342 
	C299.683319,63.503506 298.270752,64.525795 296.023468,64.337021 
	C290.712128,63.890839 289.999542,64.508568 288.513306,69.835999 
	C289.104034,69.707291 289.113586,69.156181 289.288971,68.741241 
	C290.297913,66.354065 290.659576,63.314762 294.616089,64.370361 
	C297.141113,65.044037 297.300690,64.889076 297.424866,70.059105 
	C297.490479,72.789444 298.393463,74.900627 300.764984,76.765129 
	C301.000000,86.796738 300.700348,96.606857 301.137177,106.384079 
	C301.330933,110.721313 299.933899,111.126976 296.144409,111.099464 
	C270.076508,110.910225 244.006592,111.000000 217.468658,111.000000 
	C214.475525,109.025253 215.356339,107.188492 217.333160,105.014412 
	C218.167053,104.099014 216.856171,102.992805 218.127045,102.287109 
	C218.538849,100.954407 219.932098,100.886818 220.371185,99.574188 
	C220.780350,98.791885 221.141922,98.306923 221.429108,97.462326 
	C222.044479,96.117378 222.800293,95.184074 223.188538,94.167725 
	C222.177734,95.499077 221.778061,97.094933 220.202301,98.265213 
	C218.493240,98.322441 217.564072,97.508011 216.663925,96.327957 
	C216.367630,89.767036 216.366257,89.749748 210.801086,90.193581 
	C209.410736,90.304466 208.140244,90.492462 207.973404,92.445549 
	C207.875580,93.590721 207.056808,94.693344 207.045959,95.909836 
	C207.035507,97.083076 206.256760,97.985565 206.137268,99.096100 
	C209.125214,90.237686 209.125214,90.237686 215.807983,90.457527 
	C217.091599,92.426933 215.986130,94.429657 216.840149,96.561989 
	C216.853363,97.238899 216.882782,97.510780 217.011902,98.182442 
	C217.814499,100.261536 217.927887,101.971970 217.434601,104.142532 
	C215.987701,106.916061 214.517929,109.291939 211.411652,110.749054 
z"/>
<path fill="#62136B" opacity="1.000000" stroke="none" 
	d="
M111.531342,1.000000 
	C111.664917,2.434156 112.571793,3.221904 113.632912,3.730709 
	C129.186050,11.188351 129.228317,21.821112 127.401154,34.117779 
	C125.475021,47.080482 117.878479,57.283680 109.584221,66.710976 
	C100.502548,77.033234 89.951073,85.854729 78.417076,93.480438 
	C75.282784,95.552658 74.342873,94.592026 72.229897,92.029488 
	C66.469345,85.043289 71.440712,79.731323 74.432518,74.224075 
	C82.393791,59.569141 90.825081,45.165840 98.586731,30.408575 
	C100.738007,26.318344 103.673225,26.723526 106.817703,27.091225 
	C110.498001,27.521580 109.865631,30.655684 110.076653,33.270927 
	C110.408791,37.387020 111.383812,41.438366 111.086235,45.624569 
	C110.965881,47.317665 111.659325,48.228050 113.473557,46.927128 
	C121.218338,41.373596 124.328331,24.207428 119.005287,16.234867 
	C115.306992,10.695784 107.211899,7.607512 100.095383,9.184110 
	C88.222511,11.814439 77.107613,16.297415 67.174454,23.391348 
	C63.959808,25.687145 60.921898,26.479187 57.048813,25.015137 
	C52.102718,23.145483 46.975323,23.661100 41.944855,25.125944 
	C40.916782,25.425312 39.700512,26.545689 38.857342,25.095484 
	C37.914261,23.473434 39.672554,23.404812 40.478947,22.752584 
	C52.226254,13.251079 65.643379,7.091390 80.063995,2.946628 
	C80.876022,2.713233 81.695282,2.664694 82.035309,1.382190 
	C91.687561,1.000000 101.375122,1.000000 111.531342,1.000000 
z"/>
<path fill="#62136B" opacity="1.000000" stroke="none" 
	d="
M32.721962,35.368362 
	C36.014637,35.787991 39.007435,35.990849 41.998367,35.966274 
	C44.126232,35.948795 45.862064,36.692467 47.444515,37.990765 
	C49.754417,39.885891 50.575634,40.948586 47.093830,43.178074 
	C34.154907,51.463207 22.700399,61.386829 15.333230,75.291008 
	C12.965363,79.759918 12.742909,84.490479 13.125063,89.328629 
	C13.651033,95.987518 21.890835,99.904617 28.955439,101.018623 
	C37.123039,102.306557 45.002171,100.399849 52.785530,98.690231 
	C56.227970,97.934082 57.237762,99.791351 58.816189,101.459518 
	C59.869915,102.573158 59.386326,103.566818 57.917370,104.033501 
	C44.117584,108.417671 30.259392,110.508484 15.949679,106.183556 
	C9.209919,104.146545 5.493959,99.062561 1.353805,93.924057 
	C1.000000,86.312424 1.000000,78.624847 1.000000,70.468636 
	C5.111859,66.918243 5.227047,61.576248 8.000292,57.682491 
	C13.867188,49.445095 19.846556,41.435848 29.930424,37.260391 
	C30.458652,35.804955 30.812168,34.692554 32.721962,35.368362 
z"/>
<path fill="#9B0834" opacity="1.000000" stroke="none" 
	d="
M215.310394,98.357567 
	C215.160568,98.027985 215.016403,97.586876 214.961487,97.361435 
	C214.062805,95.358894 214.748550,93.449829 214.162094,91.331917 
	C208.990845,93.181664 207.616135,97.247711 210.435532,101.368446 
	C210.967941,102.146614 211.046783,102.888802 210.585434,103.659172 
	C209.888046,104.823669 208.602737,105.334557 207.603989,104.696480 
	C206.445480,103.956322 204.280777,104.634651 204.112457,102.520905 
	C203.968704,100.715652 203.817108,98.909683 204.403961,97.093536 
	C204.852966,95.703987 205.686310,93.592606 205.074646,92.845856 
	C201.531845,88.520576 207.910355,87.496323 207.622635,84.393921 
	C208.755524,84.316444 209.947449,83.983101 211.006058,84.227432 
	C212.277328,84.520844 212.096741,85.715378 211.691025,86.670708 
	C210.543732,89.372116 212.753357,89.290520 213.907486,88.811371 
	C219.212784,86.608826 217.765228,90.586517 218.026871,93.470306 
	C219.078842,94.811577 217.714890,96.695450 219.658661,97.116570 
	C220.283493,94.778595 221.339111,93.049355 222.975220,91.248383 
	C223.369339,90.545059 223.516479,90.118065 223.784866,89.393341 
	C225.292633,89.129623 226.580429,89.129623 228.122498,89.129623 
	C227.448212,92.554840 224.634293,94.624031 223.415070,97.831284 
	C222.576096,98.404144 222.507874,99.022560 222.203690,99.861099 
	C221.574005,100.979019 221.104843,101.839310 220.388306,102.862755 
	C219.581299,103.402199 219.507126,104.017601 219.203583,104.856384 
	C218.243729,106.856369 217.445953,108.599831 216.824097,110.671646 
	C215.285645,111.000000 213.571289,111.000000 211.428467,111.000000 
	C212.106079,109.111343 213.212158,107.222694 214.587769,105.143791 
	C216.184677,102.973122 215.205078,100.770729 215.310394,98.357567 
z"/>
<path fill="#9A0632" opacity="1.000000" stroke="none" 
	d="
M301.000000,76.533882 
	C299.670990,76.377892 298.963043,77.856239 297.819458,77.931793 
	C294.739319,78.135269 292.664276,77.947060 293.752563,73.660019 
	C294.312256,71.455185 296.809265,67.354355 293.970428,66.820587 
	C291.246460,66.308434 291.632812,71.021118 291.105133,73.551476 
	C290.601532,75.966339 290.255432,78.041931 287.032898,78.012596 
	C284.601135,77.990471 283.644928,77.078949 284.130005,74.721909 
	C284.359863,73.605103 284.776672,72.521538 284.946228,71.398369 
	C286.456024,61.396423 286.691589,61.204853 296.634338,61.985516 
	C297.789185,62.076187 298.957153,61.999855 300.559509,62.000473 
	C301.000000,66.689255 301.000000,71.378510 301.000000,76.533882 
z"/>
<path fill="#9A0632" opacity="1.000000" stroke="none" 
	d="
M173.536819,1.000000 
	C174.349503,4.402578 173.291412,6.497398 169.393677,5.996887 
	C168.905075,5.934146 168.400345,6.004364 167.903214,5.999443 
	C165.923538,5.979839 164.171417,6.300728 164.118637,8.819843 
	C164.061646,11.540762 166.167816,10.815411 167.676727,10.959599 
	C169.112427,11.096789 171.332565,10.644041 171.328140,12.496400 
	C171.323700,14.351408 169.096252,13.821716 167.679443,14.004628 
	C166.128052,14.204915 164.308487,13.321205 163.098969,15.016592 
	C162.192673,16.286978 161.675095,17.736855 162.230316,19.231274 
	C162.962952,21.203217 164.813324,20.876451 166.452805,21.048880 
	C167.731018,21.183310 169.960327,20.342102 169.689331,22.797338 
	C169.487350,24.627335 167.568146,23.892511 166.391205,23.951761 
	C155.641754,24.492918 155.670578,24.479383 158.315201,14.185581 
	C159.370743,10.077058 160.261673,5.926243 161.113770,1.397338 
	C165.024551,1.000000 169.049088,1.000000 173.536819,1.000000 
z"/>
<path fill="#9A0632" opacity="1.000000" stroke="none" 
	d="
M205.536819,1.000000 
	C205.912460,4.480062 204.662445,6.494841 200.642181,6.087135 
	C199.026566,5.923290 196.367767,4.870452 196.077789,8.210930 
	C195.789536,11.531457 198.216339,10.813277 200.088272,10.994083 
	C201.162979,11.097890 202.740829,10.711925 202.754028,12.408246 
	C202.770462,14.518921 200.916916,13.746033 199.756989,13.974210 
	C198.210541,14.278419 196.379791,13.340465 195.145142,14.984809 
	C194.202301,16.240503 193.714218,17.699301 194.248062,19.200945 
	C194.959045,21.200932 196.812302,20.878073 198.455872,21.046879 
	C199.749786,21.179771 201.964539,20.351620 201.752136,22.777344 
	C201.587555,24.657248 199.644257,23.917164 198.483047,23.938347 
	C195.335159,23.995773 191.410461,24.980373 189.219452,23.494749 
	C186.150406,21.413767 189.858368,18.043177 190.152557,15.156206 
	C190.612717,10.640556 192.155823,6.235260 193.120087,1.391608 
	C197.024551,1.000000 201.049088,1.000000 205.536819,1.000000 
z"/>
<path fill="#9A0632" opacity="1.000000" stroke="none" 
	d="
M188.600006,1.000000 
	C189.900146,4.655545 188.955307,6.596646 184.717392,6.047091 
	C182.795944,5.797924 180.378464,5.653122 180.148041,8.529853 
	C179.869568,12.006204 182.691757,10.683714 184.393234,10.957844 
	C185.655380,11.161195 187.429352,10.866709 187.304886,12.690920 
	C187.210449,14.075028 185.603653,13.965613 184.435852,13.977988 
	C183.603424,13.986808 182.768402,14.041099 181.939056,13.994601 
	C179.033340,13.831694 178.206161,15.688715 178.122360,18.062290 
	C178.034363,20.555241 179.770432,20.884968 181.796280,21.053541 
	C183.234680,21.173233 185.842255,20.144281 185.691010,22.656330 
	C185.552231,24.961205 183.017990,23.900627 181.567047,23.938635 
	C171.735535,24.196156 171.640457,24.126631 174.159058,14.694025 
	C175.301697,10.414546 175.336868,5.879282 177.115326,1.393773 
	C177.750000,1.000000 178.500000,1.000000 179.625000,1.000000 
	C181.396667,2.410763 182.945633,2.278253 184.781616,1.225170 
	C186.066666,1.000000 187.133347,1.000000 188.600006,1.000000 
z"/>
<path fill="#9B0935" opacity="1.000000" stroke="none" 
	d="
M156.600006,1.000000 
	C156.608276,8.206552 153.771469,14.930232 152.827011,22.035597 
	C152.632629,23.498024 151.319244,24.075150 149.795700,23.940018 
	C147.820038,23.764784 147.718475,22.217646 148.149033,21.043655 
	C150.450027,14.769594 150.014481,7.786013 153.108307,1.381979 
	C154.066666,1.000000 155.133347,1.000000 156.600006,1.000000 
z"/>
<path fill="#000000" opacity="1.000000" stroke="none" 
	d="
M184.583344,1.000000 
	C183.745453,4.311306 181.842316,3.298533 179.930969,1.385340 
	C181.388885,1.000000 182.777786,1.000000 184.583344,1.000000 
z"/>
<path fill="#98032F" opacity="1.000000" stroke="none" 
	d="
M33.270439,35.436272 
	C32.253765,36.015369 31.484890,36.348347 30.437656,36.831131 
	C25.925171,36.101978 27.613468,34.105602 29.703007,32.942284 
	C35.743366,29.579399 41.534096,26.542789 49.168091,26.360977 
	C57.650513,26.158964 63.073566,29.145750 67.130196,35.714050 
	C73.070877,45.332920 70.759323,59.449829 61.882370,66.569931 
	C58.018528,69.669075 58.272026,72.268562 60.562107,76.062439 
	C65.559181,84.340881 70.199715,92.834557 75.038361,101.599442 
	C74.957939,104.438889 73.028305,103.338493 71.864655,103.448929 
	C70.109207,103.615532 68.319763,103.568817 66.137421,103.168671 
	C54.442532,93.772224 43.229744,84.541351 31.812546,75.570625 
	C29.490808,73.746391 28.984070,71.763733 29.029900,69.190247 
	C29.082869,66.215820 31.748571,66.699669 33.345039,66.049133 
	C43.749374,61.809486 52.146320,55.588219 54.957180,44.042816 
	C56.683800,36.950829 50.047466,30.543110 42.868740,32.221153 
	C39.694035,32.963245 36.631626,34.185741 33.270439,35.436272 
z"/>
<path fill="#9A0632" opacity="1.000000" stroke="none" 
	d="
M161.248383,37.169815 
	C161.619400,37.322571 162.150879,37.049980 162.743423,36.667446 
	C170.720673,31.517601 176.114227,33.991493 177.473267,43.635479 
	C179.018555,39.928471 179.521286,36.202244 180.032928,32.489429 
	C180.656921,27.961214 182.595001,25.489170 187.776840,27.541866 
	C187.089172,30.512701 185.328903,33.721157 190.900681,34.708008 
	C193.962341,35.250282 194.379745,39.140663 194.333649,42.444592 
	C195.059372,38.110336 197.118927,35.172920 201.463654,34.204449 
	C205.440109,33.318069 208.607910,34.616753 211.514740,37.750252 
	C212.041687,38.055447 212.267105,38.209454 212.363068,38.751961 
	C212.038544,46.738182 208.647537,51.844349 200.683624,51.130672 
	C196.640335,50.768333 194.701538,49.166050 194.703674,43.477947 
	C190.757797,50.826817 185.268616,52.511047 179.946014,50.705502 
	C175.524261,49.205547 171.904663,50.726231 168.009308,51.111744 
	C161.640106,51.742088 158.437164,47.383587 160.516861,40.814819 
	C160.866364,39.710907 161.188843,38.598438 161.248383,37.169815 
z"/>
<path fill="#62136B" opacity="1.000000" stroke="none" 
	d="
M98.000687,82.169106 
	C102.129929,77.560959 106.161644,73.253113 110.390549,69.148438 
	C112.505875,67.095245 113.718849,68.574554 113.942039,70.781120 
	C114.719772,78.469818 115.354332,86.173126 116.024025,93.872551 
	C116.153000,95.355408 115.980316,96.898537 116.329399,98.319893 
	C116.800751,100.239090 118.018364,102.729225 115.747849,103.546631 
	C113.082962,104.506020 109.406761,105.128189 107.639458,101.920425 
	C104.161537,95.607765 101.174629,89.024582 98.000687,82.169106 
z"/>
<path fill="#9A0632" opacity="1.000000" stroke="none" 
	d="
M220.633423,76.060585 
	C221.172668,73.776535 221.888168,71.851883 221.857819,69.939072 
	C221.838867,68.743912 224.202988,66.931709 221.611893,66.337280 
	C219.490662,65.850647 220.312836,68.126694 219.936691,69.186676 
	C219.226273,71.188744 218.344299,73.217575 218.145325,75.293907 
	C217.808533,78.808052 215.370560,78.087730 213.398880,77.860031 
	C210.132553,77.482819 211.910858,75.096092 212.253098,73.702087 
	C212.565994,72.427574 213.289932,71.132584 212.907898,69.891808 
	C212.521881,68.638084 215.249176,66.774712 212.550919,66.330269 
	C210.209137,65.944550 211.264709,68.530632 210.760117,69.703712 
	C209.926865,71.640831 209.354263,73.751678 209.059250,75.843941 
	C208.641403,78.807159 206.515259,77.911667 204.882660,77.877731 
	C202.576660,77.829788 202.872589,75.915619 203.105240,74.552200 
	C203.682693,71.168213 204.368622,67.786446 205.297974,64.484573 
	C205.907059,62.320637 207.246658,60.948051 209.952789,60.902645 
	C214.829315,60.820816 219.663452,61.933037 224.582214,61.077133 
	C227.027039,60.651714 228.642334,62.261021 228.954254,64.770569 
	C229.480362,69.003593 228.183334,73.102631 226.567978,76.747078 
	C225.591705,78.949684 222.442215,78.843887 220.633423,76.060585 
z"/>
<path fill="#9A0632" opacity="1.000000" stroke="none" 
	d="
M269.821472,39.863377 
	C271.313568,38.759521 270.655365,37.747627 270.373291,36.612843 
	C269.736969,34.052948 270.965668,31.946915 273.004913,30.731188 
	C275.183075,29.432615 277.886047,29.350479 280.036316,30.755390 
	C281.890442,31.966818 283.944855,33.584450 282.317627,36.472073 
	C282.031128,36.980492 281.940460,38.190109 282.166168,38.310036 
	C287.983459,41.400387 282.473389,45.912903 283.584747,49.597584 
	C284.009460,51.005589 282.457581,50.917332 281.557922,50.939384 
	C278.577148,51.012455 275.593170,50.950382 272.612335,51.021679 
	C269.879089,51.087055 266.916901,51.168995 266.190857,47.858475 
	C265.503418,44.724041 265.804688,41.534950 269.821472,39.863377 
z"/>
<path fill="#990531" opacity="1.000000" stroke="none" 
	d="
M156.694656,29.757805 
	C160.978226,30.431549 159.947052,33.932552 160.979431,36.495598 
	C160.972931,36.849701 161.044662,36.777126 161.074097,36.729183 
	C157.206802,40.612041 154.261368,44.743816 158.661392,50.194458 
	C151.772614,53.354401 151.246628,47.840591 149.599243,44.138847 
	C147.584183,45.280823 148.312256,47.148266 147.942352,48.688152 
	C147.215195,51.715256 144.700500,51.116398 142.673660,50.838585 
	C140.182068,50.497063 141.584000,48.808689 141.704620,47.423382 
	C142.205383,41.671310 144.944992,36.378796 145.307953,30.275038 
	C149.085556,28.994387 152.687363,29.696123 156.694656,29.757805 
z"/>
<path fill="#990531" opacity="1.000000" stroke="none" 
	d="
M150.062805,75.856979 
	C149.957413,73.766640 150.119507,72.064415 147.584824,71.985344 
	C145.548859,71.921822 143.977966,72.285957 143.323776,74.432434 
	C143.131119,75.064545 143.114288,75.783493 142.799271,76.339317 
	C141.404831,78.799690 138.774796,78.486618 137.055817,77.711235 
	C134.738312,76.665871 136.777512,75.100601 137.520004,73.751434 
	C140.289749,68.718636 143.186981,63.738705 145.619507,58.543732 
	C147.215805,55.134644 149.901245,55.952698 152.405045,56.098213 
	C155.257584,56.263996 155.059357,58.608025 155.011185,60.602535 
	C154.899033,65.246178 156.673340,69.749939 156.001358,74.426773 
	C155.825180,75.653023 156.453308,77.426666 154.649353,77.731651 
	C153.031250,78.005211 150.910507,78.907455 150.062805,75.856979 
z"/>
<path fill="#9A0733" opacity="1.000000" stroke="none" 
	d="
M212.600143,39.175915 
	C212.164001,38.933762 212.094421,38.727058 211.920563,38.210899 
	C213.011261,35.432217 215.141998,33.643730 216.359741,31.067286 
	C217.315155,29.045820 221.304550,29.341553 221.473083,31.077732 
	C221.721649,33.638210 224.484253,35.073631 223.499084,38.012581 
	C223.889832,40.087280 221.225754,40.643772 221.784088,42.351170 
	C222.084503,41.241882 222.642029,40.249386 223.824463,39.280861 
	C224.947357,36.450066 226.306091,34.325417 229.392105,34.050907 
	C230.819244,33.923958 232.035522,34.139851 231.975891,36.338593 
	C229.993439,39.969860 230.464096,43.962952 229.087173,47.455223 
	C228.971329,47.749069 229.027832,48.112583 229.012604,48.444107 
	C228.826401,52.501785 225.041626,51.507023 223.914841,50.777401 
	C220.498032,48.564945 214.056870,55.836143 212.886597,47.053631 
	C212.526306,44.349743 214.956024,41.811012 212.600143,39.175915 
z"/>
<path fill="#9A0632" opacity="1.000000" stroke="none" 
	d="
M258.155151,77.217049 
	C257.111115,77.297272 256.357697,77.614655 255.572571,77.791550 
	C249.202148,79.226891 246.648514,76.816841 248.395523,70.517410 
	C249.047424,68.166740 248.797195,66.386261 247.367401,64.296661 
	C246.480804,63.732422 246.261307,63.200176 246.714294,62.192974 
	C248.809280,60.998627 250.655701,60.681969 251.617615,58.256855 
	C252.308655,56.514618 255.185242,55.599865 257.105774,56.324066 
	C258.993011,57.035717 256.401276,58.790550 257.024017,60.501167 
	C257.886139,61.638397 258.768341,62.381050 259.720459,63.515717 
	C260.146637,66.090050 258.462494,67.179939 257.221863,68.237358 
	C257.522369,67.698212 257.777496,67.523407 258.391022,67.342690 
	C258.911377,66.873962 259.134277,66.534508 259.460510,65.886063 
	C260.202942,64.689667 259.627869,63.420864 260.757111,62.366470 
	C261.492096,61.830650 261.983429,61.520725 262.764221,61.175983 
	C264.165558,61.964840 266.602142,60.702236 266.706299,63.664173 
	C266.921448,64.312042 266.815430,64.594925 266.333832,64.920357 
	C265.260803,65.652313 265.538635,66.554253 265.704987,67.678848 
	C265.598419,68.479729 265.339386,68.994492 264.961914,69.780197 
	C264.254517,71.108574 264.561920,72.246338 264.711243,73.650558 
	C263.806702,75.271339 264.669037,78.146927 261.313049,77.889183 
	C260.179688,77.311790 259.257721,77.610718 258.155151,77.217049 
z"/>
<path fill="#990531" opacity="1.000000" stroke="none" 
	d="
M246.788895,61.581951 
	C247.042191,62.363029 247.042786,62.865696 247.044434,63.745346 
	C246.347733,68.144028 245.660767,72.167664 244.937607,76.184784 
	C244.854370,76.647194 244.638184,77.410652 244.367920,77.465614 
	C240.366180,78.279549 236.151779,78.587959 232.372055,77.401306 
	C228.763718,76.268448 229.994049,72.364998 230.054565,69.535744 
	C230.131363,65.945755 231.946564,63.059719 235.460190,62.107491 
	C239.031448,61.139645 242.773788,60.574009 246.788895,61.581951 
z"/>
<path fill="#990531" opacity="1.000000" stroke="none" 
	d="
M267.024231,68.509377 
	C268.440308,63.187084 271.588379,60.765755 276.778107,60.971558 
	C280.523865,61.120094 283.186371,62.827251 283.841125,66.471184 
	C284.613983,70.772652 283.490326,74.881729 279.330078,76.944397 
	C272.218781,80.470192 266.970245,76.905960 267.024231,68.509377 
z"/>
<path fill="#9A0532" opacity="1.000000" stroke="none" 
	d="
M190.729050,62.289909 
	C196.307678,59.984638 199.518982,60.731441 202.224899,64.767792 
	C204.002075,67.418777 202.800735,73.355179 199.920944,76.152657 
	C197.691925,78.317993 190.049332,78.908936 187.763062,76.648590 
	C184.965286,73.882561 185.725845,70.286064 186.726929,66.500000 
	C186.509155,64.747124 186.921631,63.768368 188.644714,63.100471 
	C188.934830,62.878399 188.954926,62.940159 188.922699,62.944252 
	C189.377411,62.640404 189.917206,62.494370 190.729050,62.289909 
z"/>
<path fill="#9A0632" opacity="1.000000" stroke="none" 
	d="
M175.197235,65.659775 
	C174.745972,66.959824 174.169113,67.841255 174.056763,68.778389 
	C173.388138,74.355644 172.614014,78.793030 164.683105,77.928238 
	C158.966522,77.304893 156.950546,76.553009 158.116959,70.856308 
	C158.573700,68.625725 159.299149,66.451393 159.809128,64.230072 
	C160.201782,62.519817 159.833313,60.332310 162.944061,61.431305 
	C165.356628,62.283649 166.736542,63.221371 165.529526,66.023109 
	C164.889389,67.509018 164.521591,69.132561 164.202805,70.728317 
	C164.035309,71.566765 163.522659,72.872734 164.874603,73.122681 
	C165.796692,73.293159 166.707016,72.786018 166.977737,71.512787 
	C167.554276,68.801178 168.450195,66.151840 168.924789,63.426407 
	C169.186859,61.921371 169.395233,60.817478 171.641388,61.105385 
	C173.963104,61.871368 176.589340,62.018986 175.197235,65.659775 
z"/>
<path fill="#9A0733" opacity="1.000000" stroke="none" 
	d="
M175.484848,66.093033 
	C174.221512,64.587852 173.334824,63.123062 172.248047,61.410473 
	C174.866943,60.665237 179.175293,63.450027 179.648804,57.539207 
	C179.696381,56.945023 182.543762,56.141712 184.058792,56.206516 
	C186.019913,56.290409 185.207764,57.998558 185.140884,59.258011 
	C185.028290,61.378544 187.517853,61.269238 188.619263,62.773430 
	C188.394638,63.803471 187.854446,64.728546 187.099457,65.895493 
	C185.400238,66.260498 183.140778,65.208984 183.154144,67.892326 
	C183.162582,69.584206 180.064438,71.828377 183.969452,73.115509 
	C185.801453,73.719360 184.747253,75.231133 184.233932,76.416672 
	C183.113297,79.004913 180.845551,77.798248 179.044861,77.944115 
	C177.333481,78.082748 176.127045,77.153160 176.097488,75.349655 
	C176.062790,73.232819 175.536362,71.070564 176.449539,68.997910 
	C176.927734,67.912590 177.400040,66.812119 175.484848,66.093033 
z"/>
<path fill="#9B0834" opacity="1.000000" stroke="none" 
	d="
M136.387985,100.237701 
	C137.872101,101.901360 139.358932,101.104660 140.785309,101.057030 
	C142.493103,101.000023 143.902328,100.264748 144.318802,98.794563 
	C144.774017,97.187729 143.325790,96.317474 142.060837,95.469040 
	C139.359283,93.657089 136.413345,92.249550 136.874008,87.871246 
	C137.226288,84.523232 139.116028,83.064774 141.660751,82.311249 
	C144.787689,81.385338 147.794785,82.666931 150.494843,84.228691 
	C151.376465,84.738632 151.118134,86.023491 150.427322,86.890846 
	C149.743408,87.749542 149.027817,87.456108 148.329361,86.874016 
	C148.074722,86.661797 147.818039,86.316803 147.538483,86.291061 
	C145.297089,86.084656 142.515427,84.977646 141.333542,87.726311 
	C140.195511,90.373032 143.062485,90.869911 144.627594,91.833107 
	C149.405487,94.773514 150.458771,100.114838 146.815781,103.378181 
	C144.598633,105.364265 137.125626,105.814644 135.000504,103.771194 
	C133.611557,102.435646 132.937866,100.560989 136.387985,100.237701 
z"/>
<path fill="#9A0632" opacity="1.000000" stroke="none" 
	d="
M245.332092,39.321194 
	C248.062820,34.514648 251.157425,33.140907 256.219757,34.745762 
	C258.929810,35.604893 259.559692,36.932487 258.856415,38.869629 
	C257.941315,41.390141 256.528503,38.713444 255.305145,38.689732 
	C254.731857,38.678619 254.177322,38.008087 253.456253,38.662594 
	C252.996628,40.458294 254.606995,40.582500 255.627365,41.249123 
	C258.072540,42.846615 258.487427,45.113285 257.636780,47.764248 
	C256.796631,50.382607 255.051834,51.362114 252.328842,51.047413 
	C250.524857,50.838921 248.681458,50.971260 246.405167,50.890854 
	C245.775482,50.695827 245.596329,50.560963 245.155548,50.214657 
	C244.893936,50.003220 244.967300,50.033634 244.952087,50.070309 
	C244.639587,49.725590 244.317841,49.366333 243.667633,48.841965 
	C242.812698,45.476322 245.211700,42.747536 245.332092,39.321194 
z"/>
<path fill="#9A0734" opacity="1.000000" stroke="none" 
	d="
M165.937820,92.461678 
	C166.096024,97.781883 166.021088,102.594551 160.141357,104.453293 
	C155.631317,105.879044 151.807938,104.208740 151.091141,100.547577 
	C149.891602,94.420807 152.559860,88.451752 156.961914,88.074707 
	C160.503128,87.771400 164.481201,87.239189 165.937820,92.461678 
z"/>
<path fill="#9A0834" opacity="1.000000" stroke="none" 
	d="
M244.745117,47.570869 
	C244.941269,48.358093 244.940811,48.857788 244.938599,49.732231 
	C233.610550,52.957241 231.781372,51.544266 231.995438,40.069374 
	C232.010635,39.255173 232.203934,38.444290 232.166763,37.144402 
	C232.019104,36.656937 231.976074,36.738937 231.937241,36.759064 
	C234.554779,37.219845 235.904068,34.326782 238.368530,34.251595 
	C241.667862,34.150928 245.666962,32.676762 245.957031,38.651741 
	C245.929810,39.057014 245.993805,38.992527 246.023743,38.958382 
	C244.046402,41.439510 244.351410,44.371136 244.745117,47.570869 
z"/>
<path fill="#9A0633" opacity="1.000000" stroke="none" 
	d="
M192.340759,96.853386 
	C193.192703,102.170944 194.378632,102.498253 201.207855,99.514954 
	C201.895477,104.050430 198.858292,104.773903 195.683929,104.934883 
	C190.783051,105.183403 188.171417,102.660690 188.020721,97.942299 
	C187.837265,92.198532 190.821823,88.111885 195.288315,87.990990 
	C200.859146,87.840202 202.708282,89.553688 202.915405,95.505653 
	C199.535217,97.270378 196.042725,96.062775 192.340759,96.853386 
z"/>
<path fill="#9B0935" opacity="1.000000" stroke="none" 
	d="
M173.310425,100.816338 
	C175.358795,101.431351 177.464722,100.100746 178.673370,102.074715 
	C178.886887,102.423424 178.537949,103.411049 178.145279,103.784874 
	C176.536713,105.316261 174.576782,105.209206 172.564285,104.739952 
	C169.826263,104.101540 167.662125,102.887138 167.104721,99.824135 
	C166.270172,95.238144 167.967300,91.669357 171.595612,88.994003 
	C173.965775,87.246361 176.601715,87.764427 179.145615,88.668976 
	C181.181580,89.392899 181.341583,90.868805 180.405334,92.972313 
	C178.120224,91.371300 175.763733,90.670563 173.530685,93.006454 
	C171.220520,95.423050 171.732758,98.037216 173.310425,100.816338 
z"/>
<path fill="#6F2777" opacity="1.000000" stroke="none" 
	d="
M126.862946,97.995415 
	C127.713554,101.086700 127.621246,103.641930 124.499184,104.669907 
	C121.910172,105.522369 119.331024,104.569221 118.321007,102.124504 
	C117.490128,100.113441 117.409706,97.435257 119.757568,95.906792 
	C122.598557,94.057312 125.007820,94.746346 126.862946,97.995415 
z"/>
<path fill="#9C0A36" opacity="1.000000" stroke="none" 
	d="
M184.684845,102.444855 
	C183.360870,104.095909 181.911987,104.487007 180.585388,103.420731 
	C179.617737,102.642960 180.006088,101.352623 180.336685,100.194588 
	C181.275604,96.905640 182.368393,93.629539 182.913071,90.269348 
	C183.319641,87.761154 184.823776,87.870308 186.468582,88.093269 
	C189.079407,88.447166 187.266815,90.030449 187.086563,91.021851 
	C186.414398,94.718964 185.616058,98.393143 184.684845,102.444855 
z"/>
<path fill="#9C0B37" opacity="1.000000" stroke="none" 
	d="
M265.795349,54.013851 
	C268.017334,54.349777 269.389343,54.933434 268.322266,57.234966 
	C267.382965,59.260979 265.728699,60.031719 263.650757,59.991970 
	C262.827637,59.976227 261.637390,60.269428 261.830688,58.576378 
	C262.095734,56.255184 261.950287,53.774429 265.795349,54.013851 
z"/>
<path fill="#9D0C38" opacity="1.000000" stroke="none" 
	d="
M232.510162,27.541023 
	C233.032196,29.840509 233.575150,32.114178 230.958603,32.828232 
	C229.610672,33.196075 227.785507,33.153660 226.622894,32.500797 
	C225.358887,31.790987 226.878723,30.477301 227.086945,29.440701 
	C227.697464,26.401451 230.052414,26.911053 232.510162,27.541023 
z"/>
<path fill="#9E113B" opacity="1.000000" stroke="none" 
	d="
M188.832397,83.807312 
	C187.116669,85.181107 185.394135,85.700729 184.225647,83.781494 
	C183.706818,82.929314 183.626724,81.364700 185.271332,81.156433 
	C186.972519,80.940987 189.065140,80.475159 188.832397,83.807312 
z"/>
<path fill="#9F133D" opacity="1.000000" stroke="none" 
	d="
M66.014854,103.237350 
	C68.612816,102.953896 71.518036,103.254753 74.706711,102.103912 
	C76.565155,103.528915 75.451118,103.936272 74.091385,103.928337 
	C71.493530,103.913193 68.863251,104.393951 66.014854,103.237350 
z"/>
<path fill="#A0143E" opacity="1.000000" stroke="none" 
	d="
M192.468506,97.093819 
	C195.209198,95.647980 198.638397,96.151115 202.421814,95.923889 
	C199.765060,98.192619 196.206421,96.447060 192.468506,97.093819 
z"/>
<path fill="#A6254C" opacity="1.000000" stroke="none" 
	d="
M156.878250,29.629116 
	C153.601608,29.976860 150.067673,29.981049 146.043793,29.985462 
	C149.141266,28.146137 152.908569,29.149921 156.878250,29.629116 
z"/>
<path fill="#9A0633" opacity="1.000000" stroke="none" 
	d="
M259.122986,64.067902 
	C258.318909,63.134846 257.807648,62.272388 257.161743,61.140339 
	C258.122101,61.243279 259.217133,61.615814 260.656464,62.064453 
	C260.787964,63.219372 260.575134,64.298180 260.254761,65.689117 
	C258.867188,65.787193 259.799652,64.704430 259.122986,64.067902 
z"/>
<path fill="#9B0935" opacity="1.000000" stroke="none" 
	d="
M219.620132,96.719627 
	C217.239639,97.640251 218.589615,95.345985 218.054535,94.182526 
	C219.287933,94.381905 218.865067,95.693352 219.620132,96.719627 
z"/>
<path fill="#9B0935" opacity="1.000000" stroke="none" 
	d="
M215.100861,98.458397 
	C215.886414,100.120857 216.068100,102.211670 214.997025,104.625893 
	C214.918579,102.931961 214.979874,100.910385 215.100861,98.458397 
z"/>
<path fill="#9A0633" opacity="1.000000" stroke="none" 
	d="
M266.912781,63.585121 
	C265.759552,63.133091 264.655457,62.298431 263.302551,61.302467 
	C264.722992,61.133369 266.901794,60.159504 266.912781,63.585121 
z"/>
<path fill="#9B0935" opacity="1.000000" stroke="none" 
	d="
M213.927460,91.441727 
	C214.652405,92.724541 214.952469,94.501045 214.910736,96.739281 
	C213.107025,95.638115 214.352188,93.596489 213.927460,91.441727 
z"/>
<path fill="#9A0633" opacity="1.000000" stroke="none" 
	d="
M264.941528,73.560654 
	C264.810394,72.830887 264.745697,71.715919 264.762238,70.326042 
	C264.898315,71.092567 264.953156,72.134010 264.941528,73.560654 
z"/>
<path fill="#9A0633" opacity="1.000000" stroke="none" 
	d="
M258.074371,77.329193 
	C258.702515,77.243210 259.525757,77.441444 260.648743,77.744751 
	C260.055481,77.771019 259.162506,77.692223 258.074371,77.329193 
z"/>
<path fill="#9A0633" opacity="1.000000" stroke="none" 
	d="
M265.918579,67.600609 
	C265.883606,67.141251 265.909821,66.317535 266.029053,65.259064 
	C266.074646,65.761627 266.027191,66.498940 265.918579,67.600609 
z"/>
<path fill="#9B0935" opacity="1.000000" stroke="none" 
	d="
M223.712585,89.192444 
	C223.790817,89.585434 223.576782,90.041252 223.243149,90.717560 
	C223.222473,90.377129 223.321396,89.816200 223.712585,89.192444 
z"/>
<path fill="#9A0733" opacity="1.000000" stroke="none" 
	d="
M190.671173,62.106968 
	C190.456406,62.356483 189.937805,62.561420 189.154846,62.857346 
	C189.382782,62.653023 189.875061,62.357704 190.671173,62.106968 
z"/>
<path fill="#9B0935" opacity="1.000000" stroke="none" 
	d="
M222.308838,99.954674 
	C222.311234,99.593506 222.579285,99.068283 222.995880,98.288712 
	C222.954437,98.619789 222.764465,99.205200 222.308838,99.954674 
z"/>
<path fill="#9B0935" opacity="1.000000" stroke="none" 
	d="
M219.306976,104.948502 
	C219.308990,104.587181 219.576492,104.061455 219.992462,103.280823 
	C219.951431,103.611977 219.761932,104.198044 219.306976,104.948502 
z"/>
<path fill="#9A0834" opacity="1.000000" stroke="none" 
	d="
M244.995544,50.229218 
	C245.133301,50.182842 245.370728,50.364990 245.780411,50.690178 
	C245.584167,50.899048 245.298355,50.773888 244.995544,50.229218 
z"/>
<path fill="#000000" opacity="1.000000" stroke="none" 
	d="
M166.073761,44.943741 
	C166.377701,43.637356 166.781204,42.733238 166.985275,41.786152 
	C167.351562,40.086140 168.269745,37.968296 169.925827,38.977562 
	C171.987030,40.233738 171.181931,42.767048 170.024460,44.682316 
	C169.018448,46.346954 167.984955,48.753971 166.073761,44.943741 
z"/>
<path fill="#000000" opacity="1.000000" stroke="none" 
	d="
M200.235764,44.821827 
	C200.499481,43.854389 200.731796,43.244629 201.001541,42.651909 
	C201.741959,41.025002 201.781113,38.082336 204.646149,39.539513 
	C207.347534,40.913441 205.053619,43.185390 204.456482,44.651123 
	C203.775162,46.323429 202.038925,48.312824 200.235764,44.821827 
z"/>
<path fill="#000000" opacity="1.000000" stroke="none" 
	d="
M187.335190,43.145317 
	C186.719116,44.550388 186.044159,46.108868 184.908844,45.474144 
	C183.321030,44.586449 184.023132,42.569530 184.188065,41.051212 
	C184.322479,39.813885 185.320007,38.873016 186.622574,39.232391 
	C188.769257,39.824650 187.864548,41.463421 187.335190,43.145317 
z"/>
<path fill="#000000" opacity="1.000000" stroke="none" 
	d="
M279.542633,40.411266 
	C280.373260,40.533440 280.202026,40.999557 279.850128,41.163597 
	C279.255920,41.440590 279.282227,40.931763 279.542633,40.411266 
z"/>
<path fill="#000000" opacity="1.000000" stroke="none" 
	d="
M151.165436,34.954391 
	C152.745300,33.752518 153.870514,33.845108 153.785828,35.863033 
	C153.719315,37.447754 152.323868,38.386265 151.084412,38.003044 
	C149.369965,37.472965 151.501923,36.225235 151.165436,34.954391 
z"/>
<path fill="#000000" opacity="1.000000" stroke="none" 
	d="
M223.888611,38.894211 
	C223.704895,41.178082 223.228928,43.262001 222.985519,45.372746 
	C222.829132,46.728889 222.231247,46.496983 221.413239,46.108704 
	C220.661301,45.751793 218.809921,46.860413 219.198441,45.289665 
	C219.785767,42.915073 218.753677,39.391613 223.003143,38.533546 
	C223.436615,38.454235 223.565765,38.579937 223.888611,38.894211 
z"/>
<path fill="#000000" opacity="1.000000" stroke="none" 
	d="
M258.839294,64.366943 
	C260.447815,63.522213 259.694977,64.936768 260.084106,65.746262 
	C260.094940,66.416130 260.042664,66.831009 259.966553,67.559113 
	C259.604858,68.352554 259.501953,68.908325 259.280090,69.715897 
	C259.083282,70.382835 259.034119,70.807198 258.958984,71.551300 
	C258.605499,72.352951 258.502319,72.905899 258.275208,73.705887 
	C256.387573,75.005371 254.284637,74.073875 254.344666,72.822578 
	C254.452042,70.584389 254.378891,67.846642 256.603333,66.219444 
	C257.316956,65.697403 258.639008,66.073921 258.839294,64.366943 
z"/>
<path fill="#9A0633" opacity="1.000000" stroke="none" 
	d="
M258.235565,73.689751 
	C258.217316,73.359184 258.311523,72.774353 258.669342,72.030273 
	C258.737976,72.392517 258.542969,72.914001 258.235565,73.689751 
z"/>
<path fill="#9A0633" opacity="1.000000" stroke="none" 
	d="
M259.243896,69.701950 
	C259.226898,69.370872 259.321381,68.783287 259.679260,68.034012 
	C259.746887,68.396698 259.551117,68.921066 259.243896,69.701950 
z"/>
<path fill="#000000" opacity="1.000000" stroke="none" 
	d="
M239.985092,68.679886 
	C239.978043,70.726898 240.009506,72.474136 237.754349,72.783051 
	C236.414490,72.966568 235.958893,72.026123 236.096451,70.947601 
	C236.345825,68.992546 236.719894,66.816002 238.946930,66.279030 
	C240.568863,65.887970 239.906570,67.480873 239.985092,68.679886 
z"/>
<path fill="#000000" opacity="1.000000" stroke="none" 
	d="
M273.796173,73.607628 
	C273.365723,73.358025 273.263306,73.211205 273.244720,73.054443 
	C272.915558,70.279129 272.463348,67.489586 275.624390,65.821205 
	C276.613373,65.299232 277.418945,65.693848 277.609344,66.422066 
	C278.476898,69.740570 277.029053,72.088142 273.796173,73.607628 
z"/>
<path fill="#000000" opacity="1.000000" stroke="none" 
	d="
M196.266876,70.191483 
	C195.496155,72.106995 194.410187,74.143555 192.839691,73.422104 
	C191.125000,72.634399 191.886734,70.196594 192.307480,68.535416 
	C192.712112,66.937912 193.914032,65.166100 195.632233,65.690292 
	C197.582153,66.285179 197.151291,68.267685 196.266876,70.191483 
z"/>
<path fill="#000000" opacity="1.000000" stroke="none" 
	d="
M244.992935,47.540710 
	C243.886444,47.523956 243.787216,45.513081 242.341599,46.094784 
	C239.448273,47.259052 237.934372,46.612888 238.058685,43.314308 
	C238.179855,40.098728 239.655426,38.470531 243.056992,39.055431 
	C243.817200,39.186150 244.613419,39.107414 245.723389,39.024673 
	C245.892822,42.692715 249.382050,43.829224 251.316101,45.978535 
	C249.718109,49.546963 246.776199,44.938641 244.992935,47.540710 
z"/>
<path fill="#000000" opacity="1.000000" stroke="none" 
	d="
M161.708099,92.596893 
	C161.811951,94.115784 162.082535,95.399040 161.668243,96.398392 
	C160.727554,98.667557 159.592728,101.726189 156.556000,100.711273 
	C153.283951,99.617714 155.317963,96.885986 156.015045,94.874695 
	C156.936523,92.215950 158.026077,89.553253 161.708099,92.596893 
z"/>
<path fill="#000000" opacity="1.000000" stroke="none" 
	d="
M194.848679,91.737549 
	C196.718750,90.722443 197.980515,91.055817 198.683823,92.703499 
	C199.002213,93.449455 199.017197,94.475410 198.062653,94.720413 
	C196.534363,95.112671 194.719482,95.570496 193.508698,94.358765 
	C192.734436,93.583885 193.938126,92.687759 194.848679,91.737549 
z"/>
</svg>